<svg width="12" height="12" viewBox="0 0 12 12" fill="none" xmlns="http://www.w3.org/2000/svg">
<path d="M2.46527 11.375C2.25527 11.375 2.06027 11.325 1.88527 11.225C1.50027 11 1.28027 10.545 1.28027 9.98V2.93C1.28027 1.66 2.31527 0.625 3.58527 0.625H8.41027C9.68027 0.625 10.7153 1.66 10.7153 2.93V9.975C10.7153 10.54 10.4953 10.995 10.1103 11.22C9.72527 11.445 9.22027 11.42 8.72527 11.145L6.28527 9.79C6.14027 9.71 5.85527 9.71 5.71027 9.79L3.27027 11.145C3.00027 11.295 2.72527 11.375 2.46527 11.375ZM3.59027 1.375C2.73527 1.375 2.03527 2.075 2.03527 2.93V9.975C2.03527 10.27 2.12027 10.49 2.27027 10.575C2.42027 10.66 2.65527 10.635 2.91027 10.49L5.35027 9.135C5.72027 8.93 6.28027 8.93 6.65027 9.135L9.09027 10.49C9.34527 10.635 9.58027 10.665 9.73027 10.575C9.88027 10.485 9.96527 10.265 9.96527 9.975V2.93C9.96527 2.075 9.26527 1.375 8.41027 1.375H3.59027V1.375Z" fill="#F5FCD2"/>
<path d="M5.54465 6.625C5.44965 6.625 5.35465 6.59 5.27965 6.515L4.52965 5.765C4.38465 5.62 4.38465 5.38 4.52965 5.235C4.67465 5.09 4.91465 5.09 5.05965 5.235L5.54465 5.72L7.27965 3.985C7.42465 3.84 7.66465 3.84 7.80965 3.985C7.95465 4.13 7.95465 4.37 7.80965 4.515L5.80965 6.515C5.73465 6.59 5.63965 6.625 5.54465 6.625Z" fill="#F5FCD2"/>
</svg>
