<svg width="18" height="18" viewBox="0 0 18 18" fill="none" xmlns="http://www.w3.org/2000/svg">
<mask id="path-1-inside-1_191_24165" fill="white">
<path d="M3.12313 1.875C2.57463 1.875 2.10448 2.06967 1.71269 2.45902C1.3209 2.84836 1.125 3.32531 1.125 3.88986C1.125 4.45441 1.3209 4.93135 1.71269 5.3207C2.10448 5.71004 2.57463 5.90471 3.12313 5.90471C3.67164 5.90471 4.14179 5.71004 4.53358 5.3207C4.92537 4.93135 5.12127 4.45441 5.12127 3.88986C5.12127 3.32531 4.92537 2.84836 4.53358 2.45902C4.14179 2.06967 3.67164 1.875 3.12313 1.875ZM3.12313 2.98463C3.35821 2.98463 3.57369 3.07223 3.76959 3.24744C3.96549 3.42264 4.06343 3.63678 4.06343 3.88986C4.06343 4.14293 3.96549 4.35707 3.76959 4.53227C3.57369 4.70748 3.35821 4.79508 3.12313 4.79508C2.88806 4.79508 2.67257 4.70748 2.47668 4.53227C2.28078 4.35707 2.18284 4.14293 2.18284 3.88986C2.18284 3.63678 2.28078 3.42264 2.47668 3.24744C2.67257 3.07223 2.88806 2.98463 3.12313 2.98463ZM3.12313 12.0953C2.57463 12.0953 2.10448 12.29 1.71269 12.6793C1.3209 13.0686 1.125 13.5456 1.125 14.1101C1.125 14.6747 1.3209 15.1516 1.71269 15.541C2.10448 15.9303 2.57463 16.125 3.12313 16.125C3.67164 16.125 4.14179 15.9303 4.53358 15.541C4.92537 15.1516 5.12127 14.6747 5.12127 14.1101C5.12127 13.5456 4.92537 13.0686 4.53358 12.6793C4.14179 12.29 3.67164 12.0953 3.12313 12.0953ZM3.12313 13.2049C3.35821 13.2049 3.57369 13.2925 3.76959 13.4677C3.96549 13.6429 4.06343 13.8571 4.06343 14.1101C4.06343 14.3632 3.96549 14.5774 3.76959 14.7526C3.57369 14.9278 3.35821 15.0154 3.12313 15.0154C2.88806 15.0154 2.67257 14.9278 2.47668 14.7526C2.28078 14.5774 2.18284 14.3632 2.18284 14.1101C2.18284 13.8571 2.28078 13.6429 2.47668 13.4677C2.67257 13.2925 2.88806 13.2049 3.12313 13.2049ZM9 1.875C8.45149 1.875 7.98134 2.06967 7.58955 2.45902C7.19776 2.84836 7.00187 3.32531 7.00187 3.88986C7.00187 4.45441 7.19776 4.93135 7.58955 5.3207C7.98134 5.71004 8.45149 5.90471 9 5.90471C9.54851 5.90471 10.0187 5.71004 10.4104 5.3207C10.8022 4.93135 10.9981 4.45441 10.9981 3.88986C10.9981 3.32531 10.8022 2.84836 10.4104 2.45902C10.0187 2.06967 9.54851 1.875 9 1.875ZM9 2.98463C9.23507 2.98463 9.45056 3.07223 9.64646 3.24744C9.84235 3.42264 9.9403 3.63678 9.9403 3.88986C9.9403 4.14293 9.84235 4.35707 9.64646 4.53227C9.45056 4.70748 9.23507 4.79508 9 4.79508C8.76493 4.79508 8.54944 4.70748 8.35354 4.53227C8.15765 4.35707 8.0597 4.14293 8.0597 3.88986C8.0597 3.63678 8.15765 3.42264 8.35354 3.24744C8.54944 3.07223 8.76493 2.98463 9 2.98463ZM9 12.0953C8.45149 12.0953 7.98134 12.29 7.58955 12.6793C7.19776 13.0686 7.00187 13.5456 7.00187 14.1101C7.00187 14.6747 7.19776 15.1516 7.58955 15.541C7.98134 15.9303 8.45149 16.125 9 16.125C9.54851 16.125 10.0187 15.9303 10.4104 15.541C10.8022 15.1516 10.9981 14.6747 10.9981 14.1101C10.9981 13.5456 10.8022 13.0686 10.4104 12.6793C10.0187 12.29 9.54851 12.0953 9 12.0953ZM9 13.2049C9.23507 13.2049 9.45056 13.2925 9.64646 13.4677C9.84235 13.6429 9.9403 13.8571 9.9403 14.1101C9.9403 14.3632 9.84235 14.5774 9.64646 14.7526C9.45056 14.9278 9.23507 15.0154 9 15.0154C8.76493 15.0154 8.54944 14.9278 8.35354 14.7526C8.15765 14.5774 8.0597 14.3632 8.0597 14.1101C8.0597 13.8571 8.15765 13.6429 8.35354 13.4677C8.54944 13.2925 8.76493 13.2049 9 13.2049ZM14.8769 1.875C14.3284 1.875 13.8582 2.06967 13.4664 2.45902C13.0746 2.84836 12.8787 3.32531 12.8787 3.88986C12.8787 4.45441 13.0746 4.93135 13.4664 5.3207C13.8582 5.71004 14.3284 5.90471 14.8769 5.90471C15.4254 5.90471 15.8955 5.71004 16.2873 5.3207C16.6791 4.93135 16.875 4.45441 16.875 3.88986C16.875 3.32531 16.6791 2.84836 16.2873 2.45902C15.8955 2.06967 15.4254 1.875 14.8769 1.875ZM14.8769 2.98463C15.1119 2.98463 15.3274 3.07223 15.5233 3.24744C15.7192 3.42264 15.8172 3.63678 15.8172 3.88986C15.8172 4.14293 15.7192 4.35707 15.5233 4.53227C15.3274 4.70748 15.1119 4.79508 14.8769 4.79508C14.6418 4.79508 14.4263 4.70748 14.2304 4.53227C14.0345 4.35707 13.9366 4.14293 13.9366 3.88986C13.9366 3.63678 14.0345 3.42264 14.2304 3.24744C14.4263 3.07223 14.6418 2.98463 14.8769 2.98463ZM14.8769 12.0953C14.3284 12.0953 13.8582 12.29 13.4664 12.6793C13.0746 13.0686 12.8787 13.5456 12.8787 14.1101C12.8787 14.6747 13.0746 15.1516 13.4664 15.541C13.8582 15.9303 14.3284 16.125 14.8769 16.125C15.4254 16.125 15.8955 15.9303 16.2873 15.541C16.6791 15.1516 16.875 14.6747 16.875 14.1101C16.875 13.5456 16.6791 13.0686 16.2873 12.6793C15.8955 12.29 15.4254 12.0953 14.8769 12.0953ZM14.8769 13.2049C15.1119 13.2049 15.3274 13.2925 15.5233 13.4677C15.7192 13.6429 15.8172 13.8571 15.8172 14.1101C15.8172 14.3632 15.7192 14.5774 15.5233 14.7526C15.3274 14.9278 15.1119 15.0154 14.8769 15.0154C14.6418 15.0154 14.4263 14.9278 14.2304 14.7526C14.0345 14.5774 13.9366 14.3632 13.9366 14.1101C13.9366 13.8571 14.0345 13.6429 14.2304 13.4677C14.4263 13.2925 14.6418 13.2049 14.8769 13.2049ZM2.59422 5.3207V12.6209C2.59422 12.7766 2.64319 12.9129 2.74114 13.0297C2.83909 13.1465 2.96642 13.2049 3.12313 13.2049C3.27985 13.2049 3.40718 13.1465 3.50513 13.0297C3.60308 12.9129 3.65205 12.7961 3.65205 12.6793V5.3207C3.65205 5.20389 3.60308 5.08709 3.50513 4.97029C3.40718 4.85348 3.27985 4.79508 3.12313 4.79508C2.96642 4.79508 2.83909 4.85348 2.74114 4.97029C2.64319 5.08709 2.59422 5.20389 2.59422 5.3207ZM8.47108 5.3207V12.6209C8.47108 12.7766 8.52006 12.9129 8.618 13.0297C8.71595 13.1465 8.84328 13.2049 9 13.2049C9.15672 13.2049 9.28405 13.1465 9.382 13.0297C9.47994 12.9129 9.52892 12.7961 9.52892 12.6793V5.3207C9.52892 5.20389 9.47994 5.08709 9.382 4.97029C9.28405 4.85348 9.15672 4.79508 9 4.79508C8.84328 4.79508 8.71595 4.85348 8.618 4.97029C8.52006 5.08709 8.47108 5.20389 8.47108 5.3207ZM14.3479 5.3207V8.24078C14.3479 8.31865 14.3284 8.37705 14.2892 8.41598C14.25 8.45492 14.2108 8.47439 14.1716 8.47439H3.12313C2.96642 8.47439 2.83909 8.52305 2.74114 8.62039C2.64319 8.71773 2.59422 8.84426 2.59422 9C2.59422 9.15574 2.64319 9.28227 2.74114 9.37961C2.83909 9.47695 2.96642 9.52561 3.12313 9.52561H14.1716C14.5243 9.52561 14.8181 9.40881 15.0532 9.1752C15.2882 8.9416 15.4058 8.63012 15.4058 8.24078V5.3791C15.4058 5.22336 15.3568 5.08709 15.2589 4.97029C15.1609 4.85348 15.0336 4.79508 14.8769 4.79508C14.7201 4.79508 14.5928 4.85348 14.4949 4.97029C14.3969 5.08709 14.3479 5.20389 14.3479 5.3207Z"/>
</mask>
<path d="M3.12313 1.875C2.57463 1.875 2.10448 2.06967 1.71269 2.45902C1.3209 2.84836 1.125 3.32531 1.125 3.88986C1.125 4.45441 1.3209 4.93135 1.71269 5.3207C2.10448 5.71004 2.57463 5.90471 3.12313 5.90471C3.67164 5.90471 4.14179 5.71004 4.53358 5.3207C4.92537 4.93135 5.12127 4.45441 5.12127 3.88986C5.12127 3.32531 4.92537 2.84836 4.53358 2.45902C4.14179 2.06967 3.67164 1.875 3.12313 1.875ZM3.12313 2.98463C3.35821 2.98463 3.57369 3.07223 3.76959 3.24744C3.96549 3.42264 4.06343 3.63678 4.06343 3.88986C4.06343 4.14293 3.96549 4.35707 3.76959 4.53227C3.57369 4.70748 3.35821 4.79508 3.12313 4.79508C2.88806 4.79508 2.67257 4.70748 2.47668 4.53227C2.28078 4.35707 2.18284 4.14293 2.18284 3.88986C2.18284 3.63678 2.28078 3.42264 2.47668 3.24744C2.67257 3.07223 2.88806 2.98463 3.12313 2.98463ZM3.12313 12.0953C2.57463 12.0953 2.10448 12.29 1.71269 12.6793C1.3209 13.0686 1.125 13.5456 1.125 14.1101C1.125 14.6747 1.3209 15.1516 1.71269 15.541C2.10448 15.9303 2.57463 16.125 3.12313 16.125C3.67164 16.125 4.14179 15.9303 4.53358 15.541C4.92537 15.1516 5.12127 14.6747 5.12127 14.1101C5.12127 13.5456 4.92537 13.0686 4.53358 12.6793C4.14179 12.29 3.67164 12.0953 3.12313 12.0953ZM3.12313 13.2049C3.35821 13.2049 3.57369 13.2925 3.76959 13.4677C3.96549 13.6429 4.06343 13.8571 4.06343 14.1101C4.06343 14.3632 3.96549 14.5774 3.76959 14.7526C3.57369 14.9278 3.35821 15.0154 3.12313 15.0154C2.88806 15.0154 2.67257 14.9278 2.47668 14.7526C2.28078 14.5774 2.18284 14.3632 2.18284 14.1101C2.18284 13.8571 2.28078 13.6429 2.47668 13.4677C2.67257 13.2925 2.88806 13.2049 3.12313 13.2049ZM9 1.875C8.45149 1.875 7.98134 2.06967 7.58955 2.45902C7.19776 2.84836 7.00187 3.32531 7.00187 3.88986C7.00187 4.45441 7.19776 4.93135 7.58955 5.3207C7.98134 5.71004 8.45149 5.90471 9 5.90471C9.54851 5.90471 10.0187 5.71004 10.4104 5.3207C10.8022 4.93135 10.9981 4.45441 10.9981 3.88986C10.9981 3.32531 10.8022 2.84836 10.4104 2.45902C10.0187 2.06967 9.54851 1.875 9 1.875ZM9 2.98463C9.23507 2.98463 9.45056 3.07223 9.64646 3.24744C9.84235 3.42264 9.9403 3.63678 9.9403 3.88986C9.9403 4.14293 9.84235 4.35707 9.64646 4.53227C9.45056 4.70748 9.23507 4.79508 9 4.79508C8.76493 4.79508 8.54944 4.70748 8.35354 4.53227C8.15765 4.35707 8.0597 4.14293 8.0597 3.88986C8.0597 3.63678 8.15765 3.42264 8.35354 3.24744C8.54944 3.07223 8.76493 2.98463 9 2.98463ZM9 12.0953C8.45149 12.0953 7.98134 12.29 7.58955 12.6793C7.19776 13.0686 7.00187 13.5456 7.00187 14.1101C7.00187 14.6747 7.19776 15.1516 7.58955 15.541C7.98134 15.9303 8.45149 16.125 9 16.125C9.54851 16.125 10.0187 15.9303 10.4104 15.541C10.8022 15.1516 10.9981 14.6747 10.9981 14.1101C10.9981 13.5456 10.8022 13.0686 10.4104 12.6793C10.0187 12.29 9.54851 12.0953 9 12.0953ZM9 13.2049C9.23507 13.2049 9.45056 13.2925 9.64646 13.4677C9.84235 13.6429 9.9403 13.8571 9.9403 14.1101C9.9403 14.3632 9.84235 14.5774 9.64646 14.7526C9.45056 14.9278 9.23507 15.0154 9 15.0154C8.76493 15.0154 8.54944 14.9278 8.35354 14.7526C8.15765 14.5774 8.0597 14.3632 8.0597 14.1101C8.0597 13.8571 8.15765 13.6429 8.35354 13.4677C8.54944 13.2925 8.76493 13.2049 9 13.2049ZM14.8769 1.875C14.3284 1.875 13.8582 2.06967 13.4664 2.45902C13.0746 2.84836 12.8787 3.32531 12.8787 3.88986C12.8787 4.45441 13.0746 4.93135 13.4664 5.3207C13.8582 5.71004 14.3284 5.90471 14.8769 5.90471C15.4254 5.90471 15.8955 5.71004 16.2873 5.3207C16.6791 4.93135 16.875 4.45441 16.875 3.88986C16.875 3.32531 16.6791 2.84836 16.2873 2.45902C15.8955 2.06967 15.4254 1.875 14.8769 1.875ZM14.8769 2.98463C15.1119 2.98463 15.3274 3.07223 15.5233 3.24744C15.7192 3.42264 15.8172 3.63678 15.8172 3.88986C15.8172 4.14293 15.7192 4.35707 15.5233 4.53227C15.3274 4.70748 15.1119 4.79508 14.8769 4.79508C14.6418 4.79508 14.4263 4.70748 14.2304 4.53227C14.0345 4.35707 13.9366 4.14293 13.9366 3.88986C13.9366 3.63678 14.0345 3.42264 14.2304 3.24744C14.4263 3.07223 14.6418 2.98463 14.8769 2.98463ZM14.8769 12.0953C14.3284 12.0953 13.8582 12.29 13.4664 12.6793C13.0746 13.0686 12.8787 13.5456 12.8787 14.1101C12.8787 14.6747 13.0746 15.1516 13.4664 15.541C13.8582 15.9303 14.3284 16.125 14.8769 16.125C15.4254 16.125 15.8955 15.9303 16.2873 15.541C16.6791 15.1516 16.875 14.6747 16.875 14.1101C16.875 13.5456 16.6791 13.0686 16.2873 12.6793C15.8955 12.29 15.4254 12.0953 14.8769 12.0953ZM14.8769 13.2049C15.1119 13.2049 15.3274 13.2925 15.5233 13.4677C15.7192 13.6429 15.8172 13.8571 15.8172 14.1101C15.8172 14.3632 15.7192 14.5774 15.5233 14.7526C15.3274 14.9278 15.1119 15.0154 14.8769 15.0154C14.6418 15.0154 14.4263 14.9278 14.2304 14.7526C14.0345 14.5774 13.9366 14.3632 13.9366 14.1101C13.9366 13.8571 14.0345 13.6429 14.2304 13.4677C14.4263 13.2925 14.6418 13.2049 14.8769 13.2049ZM2.59422 5.3207V12.6209C2.59422 12.7766 2.64319 12.9129 2.74114 13.0297C2.83909 13.1465 2.96642 13.2049 3.12313 13.2049C3.27985 13.2049 3.40718 13.1465 3.50513 13.0297C3.60308 12.9129 3.65205 12.7961 3.65205 12.6793V5.3207C3.65205 5.20389 3.60308 5.08709 3.50513 4.97029C3.40718 4.85348 3.27985 4.79508 3.12313 4.79508C2.96642 4.79508 2.83909 4.85348 2.74114 4.97029C2.64319 5.08709 2.59422 5.20389 2.59422 5.3207ZM8.47108 5.3207V12.6209C8.47108 12.7766 8.52006 12.9129 8.618 13.0297C8.71595 13.1465 8.84328 13.2049 9 13.2049C9.15672 13.2049 9.28405 13.1465 9.382 13.0297C9.47994 12.9129 9.52892 12.7961 9.52892 12.6793V5.3207C9.52892 5.20389 9.47994 5.08709 9.382 4.97029C9.28405 4.85348 9.15672 4.79508 9 4.79508C8.84328 4.79508 8.71595 4.85348 8.618 4.97029C8.52006 5.08709 8.47108 5.20389 8.47108 5.3207ZM14.3479 5.3207V8.24078C14.3479 8.31865 14.3284 8.37705 14.2892 8.41598C14.25 8.45492 14.2108 8.47439 14.1716 8.47439H3.12313C2.96642 8.47439 2.83909 8.52305 2.74114 8.62039C2.64319 8.71773 2.59422 8.84426 2.59422 9C2.59422 9.15574 2.64319 9.28227 2.74114 9.37961C2.83909 9.47695 2.96642 9.52561 3.12313 9.52561H14.1716C14.5243 9.52561 14.8181 9.40881 15.0532 9.1752C15.2882 8.9416 15.4058 8.63012 15.4058 8.24078V5.3791C15.4058 5.22336 15.3568 5.08709 15.2589 4.97029C15.1609 4.85348 15.0336 4.79508 14.8769 4.79508C14.7201 4.79508 14.5928 4.85348 14.4949 4.97029C14.3969 5.08709 14.3479 5.20389 14.3479 5.3207Z" fill="#1A202C"/>
<path d="M3.12313 1.875V1.935C2.5906 1.935 2.13562 2.12331 1.75498 2.50158L1.71269 2.45902L1.67039 2.41646C2.07334 2.01603 2.55865 1.815 3.12313 1.815V1.875ZM1.71269 2.45902L1.75498 2.50158C1.3748 2.87938 1.185 3.34089 1.185 3.88986H1.125H1.065C1.065 3.30972 1.26699 2.81734 1.67039 2.41646L1.71269 2.45902ZM1.125 3.88986H1.185C1.185 4.43882 1.3748 4.90033 1.75498 5.27814L1.71269 5.3207L1.67039 5.36326C1.26699 4.96237 1.065 4.46999 1.065 3.88986H1.125ZM1.71269 5.3207L1.75498 5.27814C2.13562 5.6564 2.5906 5.84471 3.12313 5.84471V5.90471V5.96471C2.55865 5.96471 2.07334 5.76368 1.67039 5.36326L1.71269 5.3207ZM3.12313 5.90471V5.84471C3.65567 5.84471 4.11065 5.6564 4.49129 5.27814L4.53358 5.3207L4.57588 5.36326C4.17293 5.76368 3.68761 5.96471 3.12313 5.96471V5.90471ZM4.53358 5.3207L4.49129 5.27814C4.87147 4.90033 5.06127 4.43882 5.06127 3.88986H5.12127H5.18127C5.18127 4.46999 4.97928 4.96237 4.57588 5.36326L4.53358 5.3207ZM5.12127 3.88986H5.06127C5.06127 3.34089 4.87147 2.87938 4.49129 2.50158L4.53358 2.45902L4.57588 2.41646C4.97928 2.81734 5.18127 3.30972 5.18127 3.88986H5.12127ZM4.53358 2.45902L4.49129 2.50158C4.11065 2.12331 3.65567 1.935 3.12313 1.935V1.875V1.815C3.68761 1.815 4.17293 2.01603 4.57588 2.41646L4.53358 2.45902ZM3.12313 2.98463V2.92463C3.37474 2.92463 3.60409 3.01892 3.80959 3.20272L3.76959 3.24744L3.72959 3.29216C3.5433 3.12555 3.34168 3.04463 3.12313 3.04463V2.98463ZM3.76959 3.24744L3.80959 3.20272C4.01765 3.38881 4.12343 3.61898 4.12343 3.88986H4.06343H4.00343C4.00343 3.65459 3.91332 3.45648 3.72959 3.29216L3.76959 3.24744ZM4.06343 3.88986H4.12343C4.12343 4.16074 4.01765 4.39091 3.80959 4.577L3.76959 4.53227L3.72959 4.48755C3.91332 4.32323 4.00343 4.12512 4.00343 3.88986H4.06343ZM3.76959 4.53227L3.80959 4.577C3.60409 4.76079 3.37474 4.85508 3.12313 4.85508V4.79508V4.73508C3.34168 4.73508 3.5433 4.65417 3.72959 4.48755L3.76959 4.53227ZM3.12313 4.79508V4.85508C2.87153 4.85508 2.64218 4.76079 2.43668 4.577L2.47668 4.53227L2.51668 4.48755C2.70297 4.65417 2.90459 4.73508 3.12313 4.73508V4.79508ZM2.47668 4.53227L2.43668 4.577C2.22861 4.39091 2.12284 4.16074 2.12284 3.88986H2.18284H2.24284C2.24284 4.12512 2.33295 4.32323 2.51668 4.48755L2.47668 4.53227ZM2.18284 3.88986H2.12284C2.12284 3.61898 2.22861 3.38881 2.43668 3.20272L2.47668 3.24744L2.51668 3.29216C2.33295 3.45648 2.24284 3.65459 2.24284 3.88986H2.18284ZM2.47668 3.24744L2.43668 3.20272C2.64218 3.01892 2.87153 2.92463 3.12313 2.92463V2.98463V3.04463C2.90459 3.04463 2.70297 3.12555 2.51668 3.29216L2.47668 3.24744ZM3.12313 12.0953V12.1553C2.5906 12.1553 2.13562 12.3436 1.75498 12.7219L1.71269 12.6793L1.67039 12.6367C2.07334 12.2363 2.55865 12.0353 3.12313 12.0353V12.0953ZM1.71269 12.6793L1.75498 12.7219C1.3748 13.0997 1.185 13.5612 1.185 14.1101H1.125H1.065C1.065 13.53 1.26699 13.0376 1.67039 12.6367L1.71269 12.6793ZM1.125 14.1101H1.185C1.185 14.6591 1.3748 15.1206 1.75498 15.4984L1.71269 15.541L1.67039 15.5835C1.26699 15.1827 1.065 14.6903 1.065 14.1101H1.125ZM1.71269 15.541L1.75498 15.4984C2.13562 15.8767 2.5906 16.065 3.12313 16.065V16.125V16.185C2.55865 16.185 2.07334 15.984 1.67039 15.5835L1.71269 15.541ZM3.12313 16.125V16.065C3.65567 16.065 4.11065 15.8767 4.49129 15.4984L4.53358 15.541L4.57588 15.5835C4.17293 15.984 3.68761 16.185 3.12313 16.185V16.125ZM4.53358 15.541L4.49129 15.4984C4.87147 15.1206 5.06127 14.6591 5.06127 14.1101H5.12127H5.18127C5.18127 14.6903 4.97928 15.1827 4.57588 15.5835L4.53358 15.541ZM5.12127 14.1101H5.06127C5.06127 13.5612 4.87147 13.0997 4.49129 12.7219L4.53358 12.6793L4.57588 12.6367C4.97928 13.0376 5.18127 13.53 5.18127 14.1101H5.12127ZM4.53358 12.6793L4.49129 12.7219C4.11065 12.3436 3.65567 12.1553 3.12313 12.1553V12.0953V12.0353C3.68761 12.0353 4.17293 12.2363 4.57588 12.6367L4.53358 12.6793ZM3.12313 13.2049V13.1449C3.37474 13.1449 3.60409 13.2392 3.80959 13.423L3.76959 13.4677L3.72959 13.5124C3.5433 13.3458 3.34168 13.2649 3.12313 13.2649V13.2049ZM3.76959 13.4677L3.80959 13.423C4.01765 13.6091 4.12343 13.8393 4.12343 14.1101H4.06343H4.00343C4.00343 13.8749 3.91332 13.6768 3.72959 13.5124L3.76959 13.4677ZM4.06343 14.1101H4.12343C4.12343 14.381 4.01765 14.6112 3.80959 14.7973L3.76959 14.7526L3.72959 14.7078C3.91332 14.5435 4.00343 14.3454 4.00343 14.1101H4.06343ZM3.76959 14.7526L3.80959 14.7973C3.60409 14.9811 3.37474 15.0754 3.12313 15.0754V15.0154V14.9554C3.34168 14.9554 3.5433 14.8745 3.72959 14.7078L3.76959 14.7526ZM3.12313 15.0154V15.0754C2.87153 15.0754 2.64218 14.9811 2.43668 14.7973L2.47668 14.7526L2.51668 14.7078C2.70297 14.8745 2.90459 14.9554 3.12313 14.9554V15.0154ZM2.47668 14.7526L2.43668 14.7973C2.22861 14.6112 2.12284 14.381 2.12284 14.1101H2.18284H2.24284C2.24284 14.3454 2.33295 14.5435 2.51668 14.7078L2.47668 14.7526ZM2.18284 14.1101H2.12284C2.12284 13.8393 2.22861 13.6091 2.43668 13.423L2.47668 13.4677L2.51668 13.5124C2.33295 13.6768 2.24284 13.8749 2.24284 14.1101H2.18284ZM2.47668 13.4677L2.43668 13.423C2.64218 13.2392 2.87153 13.1449 3.12313 13.1449V13.2049V13.2649C2.90459 13.2649 2.70297 13.3458 2.51668 13.5124L2.47668 13.4677ZM9 1.875V1.935C8.46746 1.935 8.01248 2.12331 7.63185 2.50158L7.58955 2.45902L7.54726 2.41646C7.9502 2.01603 8.43552 1.815 9 1.815V1.875ZM7.58955 2.45902L7.63185 2.50158C7.25167 2.87938 7.06187 3.34089 7.06187 3.88986H7.00187H6.94187C6.94187 3.30972 7.14386 2.81734 7.54726 2.41646L7.58955 2.45902ZM7.00187 3.88986H7.06187C7.06187 4.43882 7.25167 4.90033 7.63185 5.27814L7.58955 5.3207L7.54726 5.36326C7.14386 4.96237 6.94187 4.46999 6.94187 3.88986H7.00187ZM7.58955 5.3207L7.63185 5.27814C8.01248 5.6564 8.46746 5.84471 9 5.84471V5.90471V5.96471C8.43552 5.96471 7.9502 5.76368 7.54726 5.36326L7.58955 5.3207ZM9 5.90471V5.84471C9.53254 5.84471 9.98752 5.6564 10.3682 5.27814L10.4104 5.3207L10.4527 5.36326C10.0498 5.76368 9.56448 5.96471 9 5.96471V5.90471ZM10.4104 5.3207L10.3682 5.27814C10.7483 4.90033 10.9381 4.43882 10.9381 3.88986H10.9981H11.0581C11.0581 4.46999 10.8561 4.96237 10.4527 5.36326L10.4104 5.3207ZM10.9981 3.88986H10.9381C10.9381 3.34089 10.7483 2.87938 10.3682 2.50158L10.4104 2.45902L10.4527 2.41646C10.8561 2.81734 11.0581 3.30972 11.0581 3.88986H10.9981ZM10.4104 2.45902L10.3682 2.50158C9.98752 2.12331 9.53254 1.935 9 1.935V1.875V1.815C9.56448 1.815 10.0498 2.01603 10.4527 2.41646L10.4104 2.45902ZM9 2.98463V2.92463C9.2516 2.92463 9.48095 3.01892 9.68645 3.20272L9.64646 3.24744L9.60646 3.29216C9.42017 3.12555 9.21855 3.04463 9 3.04463V2.98463ZM9.64646 3.24744L9.68645 3.20272C9.89452 3.38881 10.0003 3.61898 10.0003 3.88986H9.9403H9.8803C9.8803 3.65459 9.79018 3.45648 9.60646 3.29216L9.64646 3.24744ZM9.9403 3.88986H10.0003C10.0003 4.16074 9.89452 4.39091 9.68645 4.577L9.64646 4.53227L9.60646 4.48755C9.79018 4.32323 9.8803 4.12512 9.8803 3.88986H9.9403ZM9.64646 4.53227L9.68645 4.577C9.48095 4.76079 9.2516 4.85508 9 4.85508V4.79508V4.73508C9.21855 4.73508 9.42017 4.65417 9.60646 4.48755L9.64646 4.53227ZM9 4.79508V4.85508C8.7484 4.85508 8.51905 4.76079 8.31355 4.577L8.35354 4.53227L8.39354 4.48755C8.57983 4.65417 8.78145 4.73508 9 4.73508V4.79508ZM8.35354 4.53227L8.31355 4.577C8.10548 4.39091 7.9997 4.16074 7.9997 3.88986H8.0597H8.1197C8.1197 4.12512 8.20982 4.32323 8.39354 4.48755L8.35354 4.53227ZM8.0597 3.88986H7.9997C7.9997 3.61898 8.10548 3.38881 8.31355 3.20272L8.35354 3.24744L8.39354 3.29216C8.20982 3.45648 8.1197 3.65459 8.1197 3.88986H8.0597ZM8.35354 3.24744L8.31355 3.20272C8.51905 3.01892 8.7484 2.92463 9 2.92463V2.98463V3.04463C8.78145 3.04463 8.57983 3.12555 8.39354 3.29216L8.35354 3.24744ZM9 12.0953V12.1553C8.46746 12.1553 8.01248 12.3436 7.63185 12.7219L7.58955 12.6793L7.54726 12.6367C7.9502 12.2363 8.43552 12.0353 9 12.0353V12.0953ZM7.58955 12.6793L7.63185 12.7219C7.25167 13.0997 7.06187 13.5612 7.06187 14.1101H7.00187H6.94187C6.94187 13.53 7.14386 13.0376 7.54726 12.6367L7.58955 12.6793ZM7.00187 14.1101H7.06187C7.06187 14.6591 7.25167 15.1206 7.63185 15.4984L7.58955 15.541L7.54726 15.5835C7.14386 15.1827 6.94187 14.6903 6.94187 14.1101H7.00187ZM7.58955 15.541L7.63185 15.4984C8.01248 15.8767 8.46746 16.065 9 16.065V16.125V16.185C8.43552 16.185 7.9502 15.984 7.54726 15.5835L7.58955 15.541ZM9 16.125V16.065C9.53254 16.065 9.98752 15.8767 10.3682 15.4984L10.4104 15.541L10.4527 15.5835C10.0498 15.984 9.56448 16.185 9 16.185V16.125ZM10.4104 15.541L10.3682 15.4984C10.7483 15.1206 10.9381 14.6591 10.9381 14.1101H10.9981H11.0581C11.0581 14.6903 10.8561 15.1827 10.4527 15.5835L10.4104 15.541ZM10.9981 14.1101H10.9381C10.9381 13.5612 10.7483 13.0997 10.3682 12.7219L10.4104 12.6793L10.4527 12.6367C10.8561 13.0376 11.0581 13.53 11.0581 14.1101H10.9981ZM10.4104 12.6793L10.3682 12.7219C9.98752 12.3436 9.53254 12.1553 9 12.1553V12.0953V12.0353C9.56448 12.0353 10.0498 12.2363 10.4527 12.6367L10.4104 12.6793ZM9 13.2049V13.1449C9.2516 13.1449 9.48095 13.2392 9.68645 13.423L9.64646 13.4677L9.60646 13.5124C9.42017 13.3458 9.21855 13.2649 9 13.2649V13.2049ZM9.64646 13.4677L9.68645 13.423C9.89452 13.6091 10.0003 13.8393 10.0003 14.1101H9.9403H9.8803C9.8803 13.8749 9.79018 13.6768 9.60646 13.5124L9.64646 13.4677ZM9.9403 14.1101H10.0003C10.0003 14.381 9.89452 14.6112 9.68645 14.7973L9.64646 14.7526L9.60646 14.7078C9.79018 14.5435 9.8803 14.3454 9.8803 14.1101H9.9403ZM9.64646 14.7526L9.68645 14.7973C9.48095 14.9811 9.2516 15.0754 9 15.0754V15.0154V14.9554C9.21855 14.9554 9.42017 14.8745 9.60646 14.7078L9.64646 14.7526ZM9 15.0154V15.0754C8.7484 15.0754 8.51905 14.9811 8.31355 14.7973L8.35354 14.7526L8.39354 14.7078C8.57983 14.8745 8.78145 14.9554 9 14.9554V15.0154ZM8.35354 14.7526L8.31355 14.7973C8.10548 14.6112 7.9997 14.381 7.9997 14.1101H8.0597H8.1197C8.1197 14.3454 8.20982 14.5435 8.39354 14.7078L8.35354 14.7526ZM8.0597 14.1101H7.9997C7.9997 13.8393 8.10548 13.6091 8.31355 13.423L8.35354 13.4677L8.39354 13.5124C8.20982 13.6768 8.1197 13.8749 8.1197 14.1101H8.0597ZM8.35354 13.4677L8.31355 13.423C8.51905 13.2392 8.7484 13.1449 9 13.1449V13.2049V13.2649C8.78145 13.2649 8.57983 13.3458 8.39354 13.5124L8.35354 13.4677ZM14.8769 1.875V1.935C14.3443 1.935 13.8893 2.12331 13.5087 2.50158L13.4664 2.45902L13.4241 2.41646C13.8271 2.01603 14.3124 1.815 14.8769 1.815V1.875ZM13.4664 2.45902L13.5087 2.50158C13.1285 2.87938 12.9387 3.34089 12.9387 3.88986H12.8787H12.8187C12.8187 3.30972 13.0207 2.81734 13.4241 2.41646L13.4664 2.45902ZM12.8787 3.88986H12.9387C12.9387 4.43882 13.1285 4.90033 13.5087 5.27814L13.4664 5.3207L13.4241 5.36326C13.0207 4.96237 12.8187 4.46999 12.8187 3.88986H12.8787ZM13.4664 5.3207L13.5087 5.27814C13.8893 5.6564 14.3443 5.84471 14.8769 5.84471V5.90471V5.96471C14.3124 5.96471 13.8271 5.76368 13.4241 5.36326L13.4664 5.3207ZM14.8769 5.90471V5.84471C15.4094 5.84471 15.8644 5.6564 16.245 5.27814L16.2873 5.3207L16.3296 5.36326C15.9267 5.76368 15.4413 5.96471 14.8769 5.96471V5.90471ZM16.2873 5.3207L16.245 5.27814C16.6252 4.90033 16.815 4.43882 16.815 3.88986H16.875H16.935C16.935 4.46999 16.733 4.96237 16.3296 5.36326L16.2873 5.3207ZM16.875 3.88986H16.815C16.815 3.34089 16.6252 2.87938 16.245 2.50158L16.2873 2.45902L16.3296 2.41646C16.733 2.81734 16.935 3.30972 16.935 3.88986H16.875ZM16.2873 2.45902L16.245 2.50158C15.8644 2.12331 15.4094 1.935 14.8769 1.935V1.875V1.815C15.4413 1.815 15.9267 2.01603 16.3296 2.41646L16.2873 2.45902ZM14.8769 2.98463V2.92463C15.1285 2.92463 15.3578 3.01892 15.5633 3.20272L15.5233 3.24744L15.4833 3.29216C15.297 3.12555 15.0954 3.04463 14.8769 3.04463V2.98463ZM15.5233 3.24744L15.5633 3.20272C15.7714 3.38881 15.8772 3.61898 15.8772 3.88986H15.8172H15.7572C15.7572 3.65459 15.667 3.45648 15.4833 3.29216L15.5233 3.24744ZM15.8172 3.88986H15.8772C15.8772 4.16074 15.7714 4.39091 15.5633 4.577L15.5233 4.53227L15.4833 4.48755C15.667 4.32323 15.7572 4.12512 15.7572 3.88986H15.8172ZM15.5233 4.53227L15.5633 4.577C15.3578 4.76079 15.1285 4.85508 14.8769 4.85508V4.79508V4.73508C15.0954 4.73508 15.297 4.65417 15.4833 4.48755L15.5233 4.53227ZM14.8769 4.79508V4.85508C14.6253 4.85508 14.3959 4.76079 14.1904 4.577L14.2304 4.53227L14.2704 4.48755C14.4567 4.65417 14.6583 4.73508 14.8769 4.73508V4.79508ZM14.2304 4.53227L14.1904 4.577C13.9823 4.39091 13.8766 4.16074 13.8766 3.88986H13.9366H13.9966C13.9966 4.12512 14.0867 4.32323 14.2704 4.48755L14.2304 4.53227ZM13.9366 3.88986H13.8766C13.8766 3.61898 13.9823 3.38881 14.1904 3.20272L14.2304 3.24744L14.2704 3.29216C14.0867 3.45648 13.9966 3.65459 13.9966 3.88986H13.9366ZM14.2304 3.24744L14.1904 3.20272C14.3959 3.01892 14.6253 2.92463 14.8769 2.92463V2.98463V3.04463C14.6583 3.04463 14.4567 3.12555 14.2704 3.29216L14.2304 3.24744ZM14.8769 12.0953V12.1553C14.3443 12.1553 13.8893 12.3436 13.5087 12.7219L13.4664 12.6793L13.4241 12.6367C13.8271 12.2363 14.3124 12.0353 14.8769 12.0353V12.0953ZM13.4664 12.6793L13.5087 12.7219C13.1285 13.0997 12.9387 13.5612 12.9387 14.1101H12.8787H12.8187C12.8187 13.53 13.0207 13.0376 13.4241 12.6367L13.4664 12.6793ZM12.8787 14.1101H12.9387C12.9387 14.6591 13.1285 15.1206 13.5087 15.4984L13.4664 15.541L13.4241 15.5835C13.0207 15.1827 12.8187 14.6903 12.8187 14.1101H12.8787ZM13.4664 15.541L13.5087 15.4984C13.8893 15.8767 14.3443 16.065 14.8769 16.065V16.125V16.185C14.3124 16.185 13.8271 15.984 13.4241 15.5835L13.4664 15.541ZM14.8769 16.125V16.065C15.4094 16.065 15.8644 15.8767 16.245 15.4984L16.2873 15.541L16.3296 15.5835C15.9267 15.984 15.4413 16.185 14.8769 16.185V16.125ZM16.2873 15.541L16.245 15.4984C16.6252 15.1206 16.815 14.6591 16.815 14.1101H16.875H16.935C16.935 14.6903 16.733 15.1827 16.3296 15.5835L16.2873 15.541ZM16.875 14.1101H16.815C16.815 13.5612 16.6252 13.0997 16.245 12.7219L16.2873 12.6793L16.3296 12.6367C16.733 13.0376 16.935 13.53 16.935 14.1101H16.875ZM16.2873 12.6793L16.245 12.7219C15.8644 12.3436 15.4094 12.1553 14.8769 12.1553V12.0953V12.0353C15.4413 12.0353 15.9267 12.2363 16.3296 12.6367L16.2873 12.6793ZM14.8769 13.2049V13.1449C15.1285 13.1449 15.3578 13.2392 15.5633 13.423L15.5233 13.4677L15.4833 13.5124C15.297 13.3458 15.0954 13.2649 14.8769 13.2649V13.2049ZM15.5233 13.4677L15.5633 13.423C15.7714 13.6091 15.8772 13.8393 15.8772 14.1101H15.8172H15.7572C15.7572 13.8749 15.667 13.6768 15.4833 13.5124L15.5233 13.4677ZM15.8172 14.1101H15.8772C15.8772 14.381 15.7714 14.6112 15.5633 14.7973L15.5233 14.7526L15.4833 14.7078C15.667 14.5435 15.7572 14.3454 15.7572 14.1101H15.8172ZM15.5233 14.7526L15.5633 14.7973C15.3578 14.9811 15.1285 15.0754 14.8769 15.0754V15.0154V14.9554C15.0954 14.9554 15.297 14.8745 15.4833 14.7078L15.5233 14.7526ZM14.8769 15.0154V15.0754C14.6253 15.0754 14.3959 14.9811 14.1904 14.7973L14.2304 14.7526L14.2704 14.7078C14.4567 14.8745 14.6583 14.9554 14.8769 14.9554V15.0154ZM14.2304 14.7526L14.1904 14.7973C13.9823 14.6112 13.8766 14.381 13.8766 14.1101H13.9366H13.9966C13.9966 14.3454 14.0867 14.5435 14.2704 14.7078L14.2304 14.7526ZM13.9366 14.1101H13.8766C13.8766 13.8393 13.9823 13.6091 14.1904 13.423L14.2304 13.4677L14.2704 13.5124C14.0867 13.6768 13.9966 13.8749 13.9966 14.1101H13.9366ZM14.2304 13.4677L14.1904 13.423C14.3959 13.2392 14.6253 13.1449 14.8769 13.1449V13.2049V13.2649C14.6583 13.2649 14.4567 13.3458 14.2704 13.5124L14.2304 13.4677ZM2.59422 5.3207H2.65422V12.6209H2.59422H2.53422V5.3207H2.59422ZM2.59422 12.6209H2.65422C2.65422 12.7629 2.69844 12.8854 2.78711 12.9912L2.74114 13.0297L2.69516 13.0683C2.58794 12.9404 2.53422 12.7904 2.53422 12.6209H2.59422ZM2.74114 13.0297L2.78711 12.9912C2.8733 13.0939 2.98359 13.1449 3.12313 13.1449V13.2049V13.2649C2.94925 13.2649 2.80488 13.1991 2.69516 13.0683L2.74114 13.0297ZM3.12313 13.2049V13.1449C3.26268 13.1449 3.37297 13.0939 3.45916 12.9912L3.50513 13.0297L3.55111 13.0683C3.44139 13.1991 3.29702 13.2649 3.12313 13.2649V13.2049ZM3.50513 13.0297L3.45916 12.9912C3.55085 12.8818 3.59205 12.7782 3.59205 12.6793H3.65205H3.71205C3.71205 12.814 3.65531 12.944 3.55111 13.0683L3.50513 13.0297ZM3.65205 12.6793H3.59205V5.3207H3.65205H3.71205V12.6793H3.65205ZM3.65205 5.3207H3.59205C3.59205 5.22182 3.55085 5.11818 3.45916 5.00884L3.50513 4.97029L3.55111 4.93173C3.65531 5.056 3.71205 5.18597 3.71205 5.3207H3.65205ZM3.50513 4.97029L3.45916 5.00884C3.37297 4.90606 3.26268 4.85508 3.12313 4.85508V4.79508V4.73508C3.29702 4.73508 3.44139 4.8009 3.55111 4.93173L3.50513 4.97029ZM3.12313 4.79508V4.85508C2.98359 4.85508 2.8733 4.90606 2.78711 5.00884L2.74114 4.97029L2.69516 4.93173C2.80488 4.8009 2.94925 4.73508 3.12313 4.73508V4.79508ZM2.74114 4.97029L2.78711 5.00884C2.69542 5.11818 2.65422 5.22182 2.65422 5.3207H2.59422H2.53422C2.53422 5.18597 2.59096 5.056 2.69516 4.93173L2.74114 4.97029ZM8.47108 5.3207H8.53108V12.6209H8.47108H8.41108V5.3207H8.47108ZM8.47108 12.6209H8.53108C8.53108 12.7629 8.5753 12.8854 8.66398 12.9912L8.618 13.0297L8.57203 13.0683C8.46481 12.9404 8.41108 12.7904 8.41108 12.6209H8.47108ZM8.618 13.0297L8.66398 12.9912C8.75016 13.0939 8.86045 13.1449 9 13.1449V13.2049V13.2649C8.82612 13.2649 8.68174 13.1991 8.57203 13.0683L8.618 13.0297ZM9 13.2049V13.1449C9.13955 13.1449 9.24984 13.0939 9.33602 12.9912L9.382 13.0297L9.42797 13.0683C9.31826 13.1991 9.17388 13.2649 9 13.2649V13.2049ZM9.382 13.0297L9.33602 12.9912C9.42771 12.8818 9.46892 12.7782 9.46892 12.6793H9.52892H9.58892C9.58892 12.814 9.53217 12.944 9.42797 13.0683L9.382 13.0297ZM9.52892 12.6793H9.46892V5.3207H9.52892H9.58892V12.6793H9.52892ZM9.52892 5.3207H9.46892C9.46892 5.22182 9.42771 5.11818 9.33602 5.00884L9.382 4.97029L9.42797 4.93173C9.53217 5.056 9.58892 5.18597 9.58892 5.3207H9.52892ZM9.382 4.97029L9.33602 5.00884C9.24984 4.90606 9.13955 4.85508 9 4.85508V4.79508V4.73508C9.17388 4.73508 9.31826 4.8009 9.42797 4.93173L9.382 4.97029ZM9 4.79508V4.85508C8.86045 4.85508 8.75016 4.90606 8.66398 5.00884L8.618 4.97029L8.57203 4.93173C8.68174 4.8009 8.82612 4.73508 9 4.73508V4.79508ZM8.618 4.97029L8.66398 5.00884C8.57229 5.11818 8.53108 5.22182 8.53108 5.3207H8.47108H8.41108C8.41108 5.18597 8.46783 5.056 8.57203 4.93173L8.618 4.97029ZM14.3479 5.3207H14.4079V8.24078H14.3479H14.2879V5.3207H14.3479ZM14.3479 8.24078H14.4079C14.4079 8.32799 14.386 8.4044 14.3315 8.45854L14.2892 8.41598L14.2469 8.37342C14.2708 8.3497 14.2879 8.3093 14.2879 8.24078H14.3479ZM14.2892 8.41598L14.3315 8.45854C14.2857 8.50402 14.2322 8.53439 14.1716 8.53439V8.47439V8.41439C14.1894 8.41439 14.2143 8.40582 14.2469 8.37342L14.2892 8.41598ZM14.1716 8.47439V8.53439H3.12313V8.47439V8.41439H14.1716V8.47439ZM3.12313 8.47439V8.53439C2.97994 8.53439 2.86859 8.57832 2.78343 8.66295L2.74114 8.62039L2.69884 8.57783C2.80958 8.46778 2.9529 8.41439 3.12313 8.41439V8.47439ZM2.74114 8.62039L2.78343 8.66295C2.69831 8.74754 2.65422 8.85801 2.65422 9H2.59422H2.53422C2.53422 8.83051 2.58807 8.68791 2.69884 8.57783L2.74114 8.62039ZM2.59422 9H2.65422C2.65422 9.14199 2.69831 9.25246 2.78343 9.33705L2.74114 9.37961L2.69884 9.42217C2.58807 9.31209 2.53422 9.16949 2.53422 9H2.59422ZM2.74114 9.37961L2.78343 9.33705C2.86859 9.42168 2.97994 9.46561 3.12313 9.46561V9.52561V9.58561C2.9529 9.58561 2.80958 9.53222 2.69884 9.42217L2.74114 9.37961ZM3.12313 9.52561V9.46561H14.1716V9.52561V9.58561H3.12313V9.52561ZM14.1716 9.52561V9.46561C14.5095 9.46561 14.7878 9.35431 15.0109 9.13265L15.0532 9.1752L15.0955 9.21776C14.8484 9.46331 14.539 9.58561 14.1716 9.58561V9.52561ZM15.0532 9.1752L15.0109 9.13265C15.2326 8.91226 15.3458 8.61716 15.3458 8.24078H15.4058H15.4658C15.4658 8.64309 15.3438 8.97094 15.0955 9.21776L15.0532 9.1752ZM15.4058 8.24078H15.3458V5.3791H15.4058H15.4658V8.24078H15.4058ZM15.4058 5.3791H15.3458C15.3458 5.23713 15.3016 5.11459 15.2129 5.00884L15.2589 4.97029L15.3048 4.93173C15.4121 5.05959 15.4658 5.20959 15.4658 5.3791H15.4058ZM15.2589 4.97029L15.2129 5.00884C15.1267 4.90606 15.0164 4.85508 14.8769 4.85508V4.79508V4.73508C15.0507 4.73508 15.1951 4.8009 15.3048 4.93173L15.2589 4.97029ZM14.8769 4.79508V4.85508C14.7373 4.85508 14.627 4.90606 14.5408 5.00884L14.4949 4.97029L14.4489 4.93173C14.5586 4.8009 14.703 4.73508 14.8769 4.73508V4.79508ZM14.4949 4.97029L14.5408 5.00884C14.4492 5.11818 14.4079 5.22182 14.4079 5.3207H14.3479H14.2879C14.2879 5.18597 14.3447 5.056 14.4489 4.93173L14.4949 4.97029Z" fill="#1A202C" mask="url(#path-1-inside-1_191_24165)"/>
</svg>
