<svg width="18" height="18" viewBox="0 0 18 18" fill="none" xmlns="http://www.w3.org/2000/svg">
<path d="M15.1572 16.4658C15.3313 16.4473 15.4701 16.365 15.5752 16.2168C16.6714 14.6684 17.2197 12.9067 17.2197 10.9316C17.2197 9.38299 16.8548 7.94097 16.124 6.60547C15.3931 5.26981 14.3971 4.21448 13.1367 3.44043C11.8766 2.6666 10.4978 2.28027 9 2.28027C7.50224 2.28027 6.12343 2.6666 4.86328 3.44043C3.60287 4.21448 2.60688 5.26981 1.87598 6.60547C1.14524 7.94097 0.780273 9.38299 0.780273 10.9316C0.780297 12.9067 1.32857 14.6684 2.4248 16.2168C2.52989 16.365 2.6687 16.4473 2.84277 16.4658C3.01807 16.4844 3.17584 16.4388 3.31641 16.3271C3.4572 16.2153 3.53528 16.0763 3.55273 15.9102C3.57023 15.7434 3.52688 15.5854 3.4209 15.4355C2.4638 14.1097 1.98538 12.608 1.98535 10.9316C1.98535 9.60602 2.29797 8.37712 2.92383 7.24609C3.54963 6.11524 4.40606 5.21775 5.49219 4.55469C6.57837 3.89168 7.74787 3.56055 9 3.56055C10.2521 3.56055 11.4216 3.89168 12.5078 4.55469C13.5939 5.21775 14.4504 6.11524 15.0762 7.24609C15.702 8.37712 16.0146 9.60602 16.0146 10.9316C16.0146 12.608 15.5362 14.1097 14.5791 15.4355C14.4731 15.5854 14.4298 15.7434 14.4473 15.9102C14.4647 16.0763 14.5428 16.2153 14.6836 16.3271C14.8242 16.4388 14.9819 16.4844 15.1572 16.4658ZM9 13.5234C9.61476 13.5234 10.1388 13.2942 10.5732 12.834C11.0077 12.3737 11.2245 11.8178 11.2246 11.165C11.2246 10.7815 11.1342 10.4167 10.9531 10.0713L10.9434 10.0527L10.958 10.0371L13.0479 7.76465L13.0518 7.76172C13.1907 7.65119 13.2597 7.50456 13.2598 7.31934C13.2598 7.13389 13.1909 6.98657 13.0518 6.87598L13.0703 6.85254L13.0508 6.87695L13.0459 6.87012C12.9413 6.72233 12.803 6.64941 12.6299 6.64941C12.4569 6.64945 12.3194 6.72255 12.2148 6.87012L12.2119 6.87402L10.0664 9.08789L10.0498 9.10449L10.0293 9.09277C9.70382 8.90131 9.36092 8.80566 9 8.80566C8.38526 8.80566 7.86124 9.03492 7.42676 9.49512C6.99219 9.95549 6.77539 10.5121 6.77539 11.165C6.77549 11.8178 6.99229 12.3737 7.42676 12.834C7.86125 13.2942 8.38524 13.5234 9 13.5234ZM9 12.2432C8.73385 12.2432 8.49745 12.1318 8.29102 11.9131C8.0847 11.6945 7.98058 11.445 7.98047 11.165C7.98047 10.8847 8.08465 10.643 8.29199 10.4434C8.49861 10.2445 8.73499 10.1445 9 10.1445C9.26501 10.1445 9.50139 10.2445 9.70801 10.4434C9.91535 10.643 10.0195 10.8847 10.0195 11.165C10.0194 11.445 9.9153 11.6945 9.70898 11.9131C9.50255 12.1318 9.26615 12.2432 9 12.2432Z" fill="#1A202C" stroke="#1A202C" stroke-width="0.06"/>
</svg>
