<svg width="18" height="18" viewBox="0 0 18 18" xmlns="http://www.w3.org/2000/svg">
<path d="M14.9997 8.81256H2.99971C2.82721 8.81256 2.66971 8.73756 2.56471 8.60256C2.45971 8.47506 2.41471 8.29506 2.45221 8.13006L3.29971 4.08006C3.57721 2.76756 4.13971 1.56006 6.36721 1.56006H11.6397C13.8672 1.56006 14.4297 2.77506 14.7072 4.08006L15.5547 8.13756C15.5922 8.30256 15.5472 8.47506 15.4422 8.61006C15.3297 8.73756 15.1722 8.81256 14.9997 8.81256ZM3.68971 7.68756H14.3022L13.5972 4.31256C13.3872 3.33006 13.1397 2.68506 11.6322 2.68506H6.36721C4.85971 2.68506 4.61221 3.33006 4.40221 4.31256L3.68971 7.68756Z"/>
<path d="M14.9697 17.0626H13.5597C12.3447 17.0626 12.1122 16.3651 11.9622 15.9076L11.8122 15.4576C11.6172 14.8876 11.5947 14.8126 10.9197 14.8126H7.0797C6.4047 14.8126 6.3597 14.9401 6.1872 15.4576L6.0372 15.9076C5.8797 16.3726 5.6547 17.0626 4.4397 17.0626H3.0297C2.4372 17.0626 1.8672 16.8151 1.4697 16.3801C1.0797 15.9526 0.892198 15.3826 0.944698 14.8126L1.3647 10.2451C1.4772 9.00756 1.8072 7.68756 4.2147 7.68756H13.7847C16.1922 7.68756 16.5147 9.00756 16.6347 10.2451L17.0547 14.8126C17.1072 15.3826 16.9197 15.9526 16.5297 16.3801C16.1322 16.8151 15.5622 17.0626 14.9697 17.0626ZM7.0797 13.6876H10.9197C12.2847 13.6876 12.6072 14.2951 12.8772 15.0901L13.0347 15.5551C13.1622 15.9376 13.1622 15.9451 13.5672 15.9451H14.9772C15.2547 15.9451 15.5172 15.8326 15.7047 15.6301C15.8847 15.4351 15.9672 15.1876 15.9447 14.9251L15.5247 10.3576C15.4272 9.34506 15.3072 8.82006 13.7997 8.82006H4.2147C2.6997 8.82006 2.5797 9.34506 2.4897 10.3576L2.0697 14.9251C2.0472 15.1876 2.1297 15.4351 2.3097 15.6301C2.4897 15.8326 2.7597 15.9451 3.0372 15.9451H4.4472C4.8522 15.9451 4.8522 15.9376 4.9797 15.5626L5.1297 15.1051C5.3172 14.5051 5.5947 13.6876 7.0797 13.6876Z"/>
<path d="M2.99969 6.56256H2.24969C1.94219 6.56256 1.68719 6.30756 1.68719 6.00006C1.68719 5.69256 1.94219 5.43756 2.24969 5.43756H2.99969C3.30719 5.43756 3.56219 5.69256 3.56219 6.00006C3.56219 6.30756 3.30719 6.56256 2.99969 6.56256Z"/>
<path d="M15.7497 6.56256H14.9997C14.6922 6.56256 14.4372 6.30756 14.4372 6.00006C14.4372 5.69256 14.6922 5.43756 14.9997 5.43756H15.7497C16.0572 5.43756 16.3122 5.69256 16.3122 6.00006C16.3122 6.30756 16.0572 6.56256 15.7497 6.56256Z"/>
<path d="M8.99969 4.31256C8.69219 4.31256 8.43719 4.05756 8.43719 3.75006V2.25006C8.43719 1.94256 8.69219 1.68756 8.99969 1.68756C9.30719 1.68756 9.56219 1.94256 9.56219 2.25006V3.75006C9.56219 4.05756 9.30719 4.31256 8.99969 4.31256Z"/>
<path d="M10.1247 4.31256H7.87469C7.56719 4.31256 7.31219 4.05756 7.31219 3.75006C7.31219 3.44256 7.56719 3.18756 7.87469 3.18756H10.1247C10.4322 3.18756 10.6872 3.44256 10.6872 3.75006C10.6872 4.05756 10.4322 4.31256 10.1247 4.31256Z"/>
<path d="M6.74969 11.8126H4.49969C4.19219 11.8126 3.93719 11.5576 3.93719 11.2501C3.93719 10.9426 4.19219 10.6876 4.49969 10.6876H6.74969C7.05719 10.6876 7.31219 10.9426 7.31219 11.2501C7.31219 11.5576 7.05719 11.8126 6.74969 11.8126Z"/>
<path d="M13.4997 11.8126H11.2497C10.9422 11.8126 10.6872 11.5576 10.6872 11.2501C10.6872 10.9426 10.9422 10.6876 11.2497 10.6876H13.4997C13.8072 10.6876 14.0622 10.9426 14.0622 11.2501C14.0622 11.5576 13.8072 11.8126 13.4997 11.8126Z"/>
</svg>
