<svg width="18" height="18" viewBox="0 0 18 18" xmlns="http://www.w3.org/2000/svg">
<path d="M7 3.75C7 3.07707 6.83214 2.66418 6.58398 2.41602C6.33582 2.16786 5.92293 2 5.25 2H3.75C3.07707 2 2.66418 2.16786 2.41602 2.41602C2.16786 2.66418 2 3.07707 2 3.75V5.25C2 5.92293 2.16786 6.33582 2.41602 6.58398C2.66418 6.83214 3.07707 7 3.75 7H5.25C5.92293 7 6.33582 6.83214 6.58398 6.58398C6.83214 6.33582 7 5.92293 7 5.25V3.75ZM8 5.25C8 6.07707 7.79286 6.78918 7.29102 7.29102C6.78918 7.79286 6.07707 8 5.25 8H3.75C2.92293 8 2.21082 7.79286 1.70898 7.29102C1.20714 6.78918 1 6.07707 1 5.25V3.75C1 2.92293 1.20714 2.21082 1.70898 1.70898C2.21082 1.20714 2.92293 1 3.75 1H5.25C6.07707 1 6.78918 1.20714 7.29102 1.70898C7.79286 2.21082 8 2.92293 8 3.75V5.25Z"/>
<path d="M16 3.75C16 3.07707 15.8321 2.66418 15.584 2.41602C15.3358 2.16786 14.9229 2 14.25 2H12.75C12.0771 2 11.6642 2.16786 11.416 2.41602C11.1679 2.66418 11 3.07707 11 3.75V5.25C11 5.92293 11.1679 6.33582 11.416 6.58398C11.6642 6.83214 12.0771 7 12.75 7H14.25C14.9229 7 15.3358 6.83214 15.584 6.58398C15.8321 6.33582 16 5.92293 16 5.25V3.75ZM17 5.25C17 6.07707 16.7929 6.78918 16.291 7.29102C15.7892 7.79286 15.0771 8 14.25 8H12.75C11.9229 8 11.2108 7.79286 10.709 7.29102C10.2071 6.78918 10 6.07707 10 5.25V3.75C10 2.92293 10.2071 2.21082 10.709 1.70898C11.2108 1.20714 11.9229 1 12.75 1H14.25C15.0771 1 15.7892 1.20714 16.291 1.70898C16.7929 2.21082 17 2.92293 17 3.75V5.25Z"/>
<path d="M16 12.75C16 12.0771 15.8321 11.6642 15.584 11.416C15.3358 11.1679 14.9229 11 14.25 11H12.75C12.0771 11 11.6642 11.1679 11.416 11.416C11.1679 11.6642 11 12.0771 11 12.75V14.25C11 14.9229 11.1679 15.3358 11.416 15.584C11.6642 15.8321 12.0771 16 12.75 16H14.25C14.9229 16 15.3358 15.8321 15.584 15.584C15.8321 15.3358 16 14.9229 16 14.25V12.75ZM17 14.25C17 15.0771 16.7929 15.7892 16.291 16.291C15.7892 16.7929 15.0771 17 14.25 17H12.75C11.9229 17 11.2108 16.7929 10.709 16.291C10.2071 15.7892 10 15.0771 10 14.25V12.75C10 11.9229 10.2071 11.2108 10.709 10.709C11.2108 10.2071 11.9229 10 12.75 10H14.25C15.0771 10 15.7892 10.2071 16.291 10.709C16.7929 11.2108 17 11.9229 17 12.75V14.25Z"/>
<path d="M7 12.75C7 12.0771 6.83214 11.6642 6.58398 11.416C6.33582 11.1679 5.92293 11 5.25 11H3.75C3.07707 11 2.66418 11.1679 2.41602 11.416C2.16786 11.6642 2 12.0771 2 12.75V14.25C2 14.9229 2.16786 15.3358 2.41602 15.584C2.66418 15.8321 3.07707 16 3.75 16H5.25C5.92293 16 6.33582 15.8321 6.58398 15.584C6.83214 15.3358 7 14.9229 7 14.25V12.75ZM8 14.25C8 15.0771 7.79286 15.7892 7.29102 16.291C6.78918 16.7929 6.07707 17 5.25 17H3.75C2.92293 17 2.21082 16.7929 1.70898 16.291C1.20714 15.7892 1 15.0771 1 14.25V12.75C1 11.9229 1.20714 11.2108 1.70898 10.709C2.21082 10.2071 2.92293 10 3.75 10H5.25C6.07707 10 6.78918 10.2071 7.29102 10.709C7.79286 11.2108 8 11.9229 8 12.75V14.25Z"/>
</svg>
