<svg width="18" height="18" viewBox="0 0 18 18" fill="none" xmlns="http://www.w3.org/2000/svg">
<path d="M9 1.4375C13.1714 1.4375 16.5625 4.82864 16.5625 9C16.5625 13.1714 13.1714 16.5625 9 16.5625C4.82864 16.5625 1.4375 13.1714 1.4375 9C1.4375 4.82864 4.82864 1.4375 9 1.4375ZM9 1.5625C4.89886 1.5625 1.5625 4.89886 1.5625 9C1.5625 13.1011 4.89886 16.4375 9 16.4375C13.1011 16.4375 16.4375 13.1011 16.4375 9C16.4375 4.89886 13.1011 1.5625 9 1.5625Z" fill="#3B4B66" stroke="#3B4B66"/>
<path d="M9 11.0625C7.86 11.0625 6.9375 10.14 6.9375 9C6.9375 7.86 7.86 6.9375 9 6.9375C10.14 6.9375 11.0625 7.86 11.0625 9C11.0625 10.14 10.14 11.0625 9 11.0625ZM9 8.0625C8.4825 8.0625 8.0625 8.4825 8.0625 9C8.0625 9.5175 8.4825 9.9375 9 9.9375C9.5175 9.9375 9.9375 9.5175 9.9375 9C9.9375 8.4825 9.5175 8.0625 9 8.0625Z" fill="#3B4B66"/>
</svg>
