<svg width="18" height="18" viewBox="0 0 18 18" fill="none" xmlns="http://www.w3.org/2000/svg">
<path d="M3.38281 1.44501H5.63281C6.22901 1.44501 6.70713 1.65214 7.03516 1.98016C7.36318 2.30819 7.57031 2.78631 7.57031 3.38251V13.4997C7.57031 14.2971 7.2627 15.055 6.7041 15.6286C6.59121 15.7415 6.51365 15.8124 6.44824 15.8659L6.44238 15.8708L6.43652 15.8766C6.24184 16.047 5.98199 16.2059 5.69824 16.322C5.62241 16.3523 5.55125 16.3816 5.46875 16.4138C5.14882 16.5107 4.81914 16.5622 4.5 16.5622C4.30964 16.5622 4.10316 16.5433 3.89453 16.5046C3.78222 16.4779 3.68156 16.4502 3.57422 16.4216C3.47184 16.391 3.37127 16.3543 3.26855 16.3132L3.2373 16.3005L3.22949 16.2985L3.22852 16.2975C2.98895 16.1739 2.79225 16.0555 2.62012 15.9284C2.61799 15.9266 2.61559 15.9245 2.61328 15.9225C2.60735 15.9175 2.60021 15.9127 2.59277 15.9069C2.48794 15.8231 2.40492 15.751 2.33203 15.6725L2.33105 15.6716L2.0918 15.405C1.94323 15.21 1.82238 15.0187 1.71387 14.7966L1.70605 14.7653L1.68945 14.7282L1.64062 14.6013C1.62581 14.5591 1.61212 14.5166 1.60059 14.4733L1.59863 14.4655L1.51074 14.1296C1.46426 13.8972 1.44531 13.6974 1.44531 13.5075V3.38251C1.44531 2.78631 1.65245 2.30819 1.98047 1.98016C2.30849 1.65214 2.78661 1.44501 3.38281 1.44501ZM3.375 1.57001C2.86562 1.57007 2.40026 1.73029 2.06152 2.06903C1.72282 2.40782 1.5625 2.87308 1.5625 3.38251V13.4997C1.5625 13.6894 1.58116 13.8906 1.62695 14.1013V14.1032C1.64369 14.1785 1.67199 14.2824 1.69043 14.3561L1.69629 14.3815L1.70508 14.4059C1.7295 14.4731 1.76014 14.5617 1.79395 14.6462L1.8125 14.694L1.83008 14.7204C1.83085 14.7221 1.83204 14.7242 1.83301 14.7263C1.83286 14.7259 1.83283 14.7268 1.83496 14.7321C1.83654 14.7361 1.83988 14.7454 1.84375 14.7546C1.84764 14.7638 1.85465 14.7793 1.86328 14.7966L1.87109 14.8122C1.97015 14.9938 2.07388 15.1588 2.19043 15.3112L2.2002 15.3239L2.21191 15.3366C2.2672 15.3998 2.33665 15.4784 2.40332 15.5524L2.40625 15.5554C2.51808 15.6774 2.61469 15.752 2.6875 15.8102C2.6975 15.8184 2.70631 15.825 2.71289 15.8298C2.71589 15.832 2.71914 15.8338 2.72168 15.8356L2.73047 15.8425C2.87721 15.9525 3.03637 16.0489 3.21094 16.1403L3.21875 16.1452C3.24314 16.1574 3.26633 16.1649 3.28516 16.1716C3.29808 16.1788 3.31402 16.188 3.33203 16.197L3.35059 16.2067L3.36914 16.2145C3.46811 16.2541 3.56479 16.2828 3.63672 16.3044L3.64844 16.3073C3.68969 16.3186 3.73121 16.3302 3.77246 16.3415C3.81369 16.3527 3.85525 16.3634 3.89648 16.3747L3.91699 16.3806L3.93848 16.3845C4.42087 16.4721 4.95112 16.4501 5.39648 16.2985L5.41504 16.2917L5.43262 16.2849C5.44184 16.2809 5.45565 16.2754 5.49707 16.2604C5.52747 16.2495 5.57102 16.2324 5.61719 16.2126L5.61816 16.2136C5.6218 16.2121 5.62529 16.2092 5.62891 16.2077C5.63025 16.2071 5.63245 16.2073 5.63379 16.2067L5.63281 16.2057C5.91129 16.091 6.14342 15.9484 6.34961 15.779L6.35059 15.78C6.42387 15.7213 6.53477 15.6191 6.54297 15.612L6.56055 15.5974L6.57715 15.5807C7.13526 15.0049 7.4375 14.2816 7.4375 13.5075V3.38251C7.4375 2.87301 7.27728 2.40784 6.93848 2.06903C6.59968 1.73033 6.13442 1.57001 5.625 1.57001H3.375ZM2.63965 15.947C2.64389 15.9508 2.64729 15.9537 2.64941 15.9557C2.6505 15.9568 2.65162 15.958 2.65234 15.9587C2.65086 15.9572 2.64583 15.9529 2.64062 15.9479L2.63965 15.947Z" fill="#1A202C" stroke="#1A202C"/>
<path d="M11.7451 10.445H14.625C15.2212 10.445 15.6993 10.6521 16.0273 10.9802C16.3554 11.3082 16.5625 11.7863 16.5625 12.3825V14.6325C16.5625 15.2243 16.3555 15.7006 16.0273 16.028C15.6992 16.3553 15.2211 16.5622 14.625 16.5622H4.5C4.48694 16.5622 4.47132 16.557 4.45703 16.5427C4.44286 16.5284 4.4375 16.5127 4.4375 16.4997C4.43758 16.4867 4.44286 16.4709 4.45703 16.4567C4.47128 16.4426 4.48698 16.4372 4.5 16.4372C4.80688 16.4372 5.11895 16.3939 5.39844 16.2975L5.41504 16.2917L5.43164 16.2849C5.44086 16.2809 5.45535 16.2755 5.49707 16.2604C5.52752 16.2494 5.57106 16.2324 5.61719 16.2126L5.61816 16.2136C5.9058 16.0967 6.14423 15.9496 6.35547 15.7751L6.35449 15.7741C6.42792 15.7147 6.53553 15.6184 6.54297 15.612L6.55762 15.5993L6.57129 15.5866L11.7012 10.4636C11.7135 10.4513 11.7293 10.445 11.7451 10.445ZM11.624 10.7087L6.74219 15.5837L5.88672 16.4372H14.625C15.1345 16.4372 15.5997 16.277 15.9385 15.9382C16.2772 15.5994 16.4375 15.1341 16.4375 14.6247V12.3747C16.4374 11.8653 16.2772 11.4 15.9385 11.0612C15.5997 10.7225 15.1344 10.5622 14.625 10.5622H11.7705L11.624 10.7087Z" fill="#1A202C" stroke="#1A202C"/>
<path d="M1.67383 14.3433C1.68813 14.3509 1.70093 14.3644 1.70801 14.3853V14.3843C1.99846 15.302 2.71899 16.0218 3.6377 16.3101H3.64062C3.66023 16.3161 3.68252 16.3427 3.67676 16.3813C3.67079 16.3919 3.66344 16.403 3.65137 16.4116C3.63442 16.4236 3.61801 16.4272 3.60742 16.4272C3.60375 16.4272 3.59862 16.4263 3.59082 16.4243C3.11803 16.2834 2.68221 16.0211 2.33691 15.6694L2.33008 15.6636L2.20508 15.5317C1.92244 15.2157 1.70542 14.8303 1.58203 14.4155V14.4136L1.57812 14.3862C1.5789 14.3785 1.5812 14.3719 1.58398 14.3667C1.58955 14.3563 1.60035 14.3457 1.62109 14.3394C1.64222 14.333 1.65988 14.3359 1.67383 14.3433Z" fill="#1A202C" stroke="#1A202C"/>
<path d="M9.48828 4.17143C10.2755 3.38421 11.4432 3.38424 12.2305 4.17143L13.8213 5.76128C14.2421 6.18227 14.4336 6.66745 14.4336 7.13237C14.4336 7.59728 14.2421 8.08246 13.8213 8.50346L6.68848 15.6285L6.67676 15.6402C6.67237 15.6449 6.66904 15.6475 6.66699 15.649C6.66499 15.6503 6.66352 15.6513 6.66211 15.6519C6.6595 15.653 6.65418 15.6548 6.64453 15.6548C6.63475 15.6548 6.62691 15.6533 6.62109 15.6509C6.61576 15.6488 6.60893 15.6446 6.60059 15.6363C6.57312 15.6087 6.57393 15.5683 6.59863 15.5425L6.59766 15.5415C7.13791 14.9908 7.43646 14.2598 7.43652 13.4927V6.2476C7.43652 6.23185 7.44297 6.21592 7.45508 6.20366L9.48828 4.17143ZM10.8594 3.6978C10.3825 3.69784 9.93589 3.90656 9.57617 4.26616L7.56152 6.28081V14.5855L8.41504 13.7339L13.7324 8.42339H13.7334C14.0929 8.06379 14.3065 7.62176 14.3066 7.14311C14.3066 6.66479 14.0932 6.22152 13.7354 5.85893L13.7334 5.856L12.1426 4.26616C11.7829 3.9066 11.3363 3.6978 10.8594 3.6978Z" fill="#1A202C" stroke="#1A202C"/>
<path d="M4.3125 13.5C4.3125 13.71 4.6875 13.71 4.6875 13.5C4.6875 13.395 4.605 13.3125 4.5 13.3125C4.395 13.3125 4.3125 13.395 4.3125 13.5ZM4.3125 13.5H4.1875M4.3125 13.5H4.1875M4.1875 13.5C4.1875 13.3834 4.24821 13.2789 4.33008 13.2178C4.39764 13.1673 4.46143 13.1572 4.5 13.1572C4.53857 13.1572 4.60236 13.1673 4.66992 13.2178C4.75179 13.2789 4.8125 13.3834 4.8125 13.5C4.8125 13.6711 4.67114 13.8125 4.5 13.8125C4.32886 13.8125 4.1875 13.6711 4.1875 13.5ZM4.5 12.6875C4.94386 12.6875 5.3125 13.0561 5.3125 13.5C5.3125 13.9439 4.94386 14.3125 4.5 14.3125C4.05614 14.3125 3.6875 13.9439 3.6875 13.5C3.6875 13.0561 4.05614 12.6875 4.5 12.6875ZM4.5 12.8125C4.11886 12.8125 3.8125 13.1189 3.8125 13.5C3.8125 13.7216 3.92008 13.9049 4.07227 14.0186C4.21014 14.1215 4.3677 14.1572 4.5 14.1572C4.6323 14.1572 4.78986 14.1215 4.92773 14.0186C5.07992 13.9049 5.1875 13.7216 5.1875 13.5C5.1875 13.1189 4.88114 12.8125 4.5 12.8125Z" fill="#1A202C" stroke="#1A202C"/>
</svg>
