<svg width="13" height="12" viewBox="0 0 13 12" fill="none" xmlns="http://www.w3.org/2000/svg">
<path d="M3.4284 11.03C2.9284 11.03 2.4434 10.835 2.0584 10.46C1.4334 9.85 1.2834 8.95 1.6734 8.17L2.4834 6.55C2.6534 6.21 2.6534 5.8 2.4834 5.455L1.6734 3.83C1.2834 3.05 1.4334 2.15 2.0584 1.54C2.6834 0.93 3.5834 0.795 4.3584 1.205L10.1534 4.255C10.8034 4.595 11.2084 5.265 11.2084 6C11.2084 6.735 10.8034 7.405 10.1534 7.745L4.3584 10.795C4.0584 10.955 3.7434 11.03 3.4284 11.03ZM3.4334 1.72C3.0884 1.72 2.7884 1.88 2.5834 2.08C2.2734 2.38 2.0534 2.915 2.3434 3.5L3.1534 5.12C3.4284 5.675 3.4284 6.33 3.1534 6.885L2.3434 8.505C2.0484 9.09 2.2734 9.625 2.5834 9.925C2.8934 10.225 3.4284 10.44 4.0084 10.135L9.8034 7.085C10.2134 6.87 10.4584 6.465 10.4584 6.005C10.4584 5.545 10.2134 5.14 9.8034 4.925L4.0084 1.865C3.8084 1.76 3.6134 1.72 3.4334 1.72Z" fill="#F5FCD2"/>
</svg>
