<svg width="18" height="18" viewBox="0 0 18 18" fill="none" xmlns="http://www.w3.org/2000/svg">
<path d="M6.75008 13.3125C6.44258 13.3125 6.18758 13.0575 6.18758 12.75V9.6075L5.64758 10.1475C5.43008 10.365 5.07008 10.365 4.85258 10.1475C4.63508 9.93 4.63508 9.57 4.85258 9.3525L6.35258 7.8525C6.51008 7.695 6.75758 7.6425 6.96758 7.7325C7.17758 7.815 7.31258 8.025 7.31258 8.25V12.75C7.31258 13.0575 7.05758 13.3125 6.75008 13.3125Z" fill="#1A202C"/>
<path d="M8.25008 10.3125C8.10758 10.3125 7.96508 10.26 7.85258 10.1475L6.35258 8.6475C6.13508 8.43 6.13508 8.07 6.35258 7.8525C6.57008 7.635 6.93008 7.635 7.14758 7.8525L8.64758 9.3525C8.86508 9.57 8.86508 9.93 8.64758 10.1475C8.53508 10.26 8.39258 10.3125 8.25008 10.3125Z" fill="#292D32"/>
<path d="M11.25 17.0625H6.75C2.6775 17.0625 0.9375 15.3225 0.9375 11.25V6.75C0.9375 2.6775 2.6775 0.9375 6.75 0.9375H10.5C10.8075 0.9375 11.0625 1.1925 11.0625 1.5C11.0625 1.8075 10.8075 2.0625 10.5 2.0625H6.75C3.2925 2.0625 2.0625 3.2925 2.0625 6.75V11.25C2.0625 14.7075 3.2925 15.9375 6.75 15.9375H11.25C14.7075 15.9375 15.9375 14.7075 15.9375 11.25V7.5C15.9375 7.1925 16.1925 6.9375 16.5 6.9375C16.8075 6.9375 17.0625 7.1925 17.0625 7.5V11.25C17.0625 15.3225 15.3225 17.0625 11.25 17.0625Z" fill="#292D32"/>
<path d="M16.5 8.0625H13.5C10.935 8.0625 9.9375 7.065 9.9375 4.5V1.5C9.9375 1.275 10.0725 1.065 10.2825 0.982499C10.4925 0.892499 10.7325 0.944999 10.8975 1.1025L16.8975 7.1025C17.055 7.26 17.1075 7.5075 17.0175 7.7175C16.9275 7.9275 16.725 8.0625 16.5 8.0625ZM11.0625 2.8575V4.5C11.0625 6.435 11.565 6.9375 13.5 6.9375H15.1425L11.0625 2.8575Z" fill="#292D32"/>
</svg>
