<svg width="18" height="18" viewBox="0 0 18 18" fill="none" xmlns="http://www.w3.org/2000/svg">
<path d="M1 7.90909L7.18086 1.36364C7.50955 1.09004 7.73614 1.01372 8.2716 1C8.2716 1 14.66 1 15.5432 1C16.4264 1 16.9975 1.72727 16.9975 2.45455C16.9975 3.18182 16.9975 7.90909 16.9975 7.90909M1 7.90909C1 7.90909 1 14.8182 1 15.5455C1 16.2727 1.36358 17 2.45432 17C3.54506 17 15.5432 17 15.5432 17C16.3969 16.9751 17.0453 16.3709 16.9975 15.2558V7.90909M1 7.90909H16.9975M14.816 9.72727H12.271" stroke="#1A202C" stroke-linecap="round"/>
</svg>
