<svg width="18" height="18" viewBox="0 0 18 18" fill="none" xmlns="http://www.w3.org/2000/svg">
<path d="M13.3504 6.50999H4.6504C4.4779 6.50999 4.3204 6.43502 4.2154 6.30002C4.1104 6.16502 4.06541 5.99251 4.10291 5.82751L4.7179 2.88748C4.9204 1.91998 5.3629 0.9375 7.0879 0.9375H10.9129C12.6454 0.9375 13.0879 1.92748 13.2829 2.88748L13.8979 5.82751C13.9354 5.99251 13.8904 6.16502 13.7854 6.30002C13.6804 6.43502 13.5229 6.50999 13.3504 6.50999ZM5.3404 5.38499H12.6529L12.1804 3.12749C12.0304 2.40749 11.8579 2.07001 10.9054 2.07001H7.08041C6.13541 2.07001 5.95541 2.40749 5.80541 3.12749L5.3404 5.38499Z" fill="#1A202C"/>
<path d="M13.3273 12.4875H12.3073C11.3173 12.4875 11.1148 11.8725 11.0023 11.5425L10.8898 11.2125C10.7698 10.8525 10.7698 10.8524 10.3873 10.8524H7.60476C7.22226 10.8524 7.22226 10.86 7.10226 11.2125L6.98977 11.5425C6.87727 11.8725 6.67476 12.4875 5.68476 12.4875H4.66476C4.19226 12.4875 3.73476 12.2849 3.41976 11.9399C3.11226 11.6024 2.95476 11.145 2.99976 10.6875L3.30726 7.37997C3.40476 6.34497 3.74226 5.38495 5.52726 5.38495H12.4648C14.2498 5.38495 14.5873 6.34497 14.6848 7.37997L14.9923 10.695C15.0373 11.1525 14.8798 11.6099 14.5723 11.9474C14.2573 12.2924 13.7998 12.4875 13.3273 12.4875ZM12.1348 11.355C12.1498 11.355 12.2098 11.3625 12.3073 11.3625H13.3273C13.4848 11.3625 13.6348 11.3024 13.7398 11.1824C13.8373 11.0774 13.8823 10.935 13.8748 10.7925L13.5673 7.47743C13.5073 6.80993 13.4773 6.50244 12.4723 6.50244H5.53476C4.52976 6.50244 4.49976 6.80993 4.43976 7.47743L4.13226 10.7925C4.11726 10.935 4.16226 11.0774 4.26726 11.1824C4.37226 11.2949 4.52227 11.3625 4.67977 11.3625H5.69977C5.84977 11.3625 5.89476 11.34 5.90226 11.34C5.89476 11.34 5.91726 11.2499 5.93976 11.1899L6.05227 10.8599C6.19477 10.4399 6.42726 9.72743 7.61976 9.72743H10.4023C11.4898 9.72743 11.7673 10.26 11.9623 10.845L12.0748 11.1824C12.0898 11.2499 12.1123 11.325 12.1348 11.355C12.1348 11.355 12.1273 11.355 12.1348 11.355Z" fill="#1A202C"/>
<path d="M4.65004 4.875H4.10254C3.79504 4.875 3.54004 4.62 3.54004 4.3125C3.54004 4.005 3.79504 3.75 4.10254 3.75H4.65004C4.95754 3.75 5.21254 4.005 5.21254 4.3125C5.21254 4.62 4.95754 4.875 4.65004 4.875Z" fill="#1A202C"/>
<path d="M13.8971 4.875H13.3496C13.0421 4.875 12.7871 4.62 12.7871 4.3125C12.7871 4.005 13.0421 3.75 13.3496 3.75H13.8971C14.2046 3.75 14.4596 4.005 14.4596 4.3125C14.4596 4.62 14.2046 4.875 13.8971 4.875Z" fill="#1A202C"/>
<path d="M7.36547 8.68506H5.73047C5.42297 8.68506 5.16797 8.43006 5.16797 8.12256C5.16797 7.81506 5.42297 7.56006 5.73047 7.56006H7.36547C7.67297 7.56006 7.92797 7.81506 7.92797 8.12256C7.92797 8.43006 7.68047 8.68506 7.36547 8.68506Z" fill="#1A202C"/>
<path d="M12.262 8.68506H10.627C10.3195 8.68506 10.0645 8.43006 10.0645 8.12256C10.0645 7.81506 10.3195 7.56006 10.627 7.56006H12.262C12.5695 7.56006 12.8245 7.81506 12.8245 8.12256C12.8245 8.43006 12.5695 8.68506 12.262 8.68506Z" fill="#1A202C"/>
<path d="M9 14.0625C8.6925 14.0625 8.4375 13.8075 8.4375 13.5V12.75C8.4375 12.4425 8.6925 12.1875 9 12.1875C9.3075 12.1875 9.5625 12.4425 9.5625 12.75V13.5C9.5625 13.8075 9.3075 14.0625 9 14.0625Z" fill="#1A202C"/>
<path d="M9 17.0625C8.6925 17.0625 8.4375 16.8075 8.4375 16.5V15.75C8.4375 15.4425 8.6925 15.1875 9 15.1875C9.3075 15.1875 9.5625 15.4425 9.5625 15.75V16.5C9.5625 16.8075 9.3075 17.0625 9 17.0625Z" fill="#1A202C"/>
<path d="M1.49958 17.0626C1.45458 17.0626 1.40959 17.055 1.36459 17.0475C1.06459 16.9725 0.877085 16.6651 0.952085 16.3651L1.70208 13.3651C1.77708 13.0651 2.07708 12.8776 2.38458 12.9526C2.68458 13.0276 2.87208 13.3351 2.79708 13.6351L2.04708 16.6351C1.97958 16.8901 1.75458 17.0626 1.49958 17.0626Z" fill="#1A202C"/>
<path d="M16.5 17.0624C16.245 17.0624 16.02 16.8899 15.9525 16.6349L15.2025 13.6349C15.1275 13.3349 15.3075 13.0275 15.615 12.9525C15.915 12.8775 16.2225 13.0575 16.2975 13.365L17.0475 16.365C17.1225 16.665 16.9425 16.9724 16.635 17.0474C16.59 17.0549 16.545 17.0624 16.5 17.0624Z" fill="#1A202C"/>
</svg>
