<svg width="18" height="18" viewBox="0 0 18 18" fill="none" xmlns="http://www.w3.org/2000/svg">
<path d="M15.625 13.6797V13.2871H14.7002C13.6712 13.2871 12.6769 12.5355 12.582 11.4316C12.5222 10.8013 12.7632 10.2122 13.1807 9.80469C13.5522 9.42793 14.0608 9.21289 14.6104 9.21289H15.625V8.63281C15.625 7.35645 14.581 6.3125 13.3047 6.3125H4.69531C3.41896 6.3125 2.375 7.35645 2.375 8.63281V9.92969L2.36523 10.0303C2.31882 10.2584 2.11682 10.4297 1.875 10.4297C1.63318 10.4297 1.43118 10.2584 1.38477 10.0303L1.375 9.92969V8.63281C1.375 6.80417 2.86667 5.3125 4.69531 5.3125H13.3047C15.1333 5.3125 16.625 6.80417 16.625 8.63281V9.71289C16.6248 9.98886 16.401 10.2129 16.125 10.2129H14.6104C14.3243 10.2129 14.0714 10.3241 13.8887 10.5117L13.8789 10.5205C13.6933 10.7019 13.5789 10.9509 13.5732 11.2207L13.5781 11.3379V11.3438C13.621 11.857 14.1109 12.2871 14.7002 12.2871H16.125C16.401 12.2871 16.6248 12.5111 16.625 12.7871V13.6797C16.625 15.5083 15.1333 17 13.3047 17H9.19531C8.91917 17 8.69531 16.7761 8.69531 16.5C8.69531 16.2239 8.91917 16 9.19531 16H13.3047C14.581 16 15.625 14.956 15.625 13.6797Z" fill="#1A202C"/>
<path d="M10.6377 5.81252V2.96291C10.6377 2.31391 9.98898 1.86724 9.3877 2.09474H9.38672L3.43164 4.34474C2.79462 4.58584 2.37505 5.19438 2.375 5.8799V9.30763C2.37492 9.58371 2.1511 9.80763 1.875 9.80763C1.5989 9.80763 1.37508 9.58371 1.375 9.30763V5.8799C1.37505 4.78059 2.05033 3.79909 3.07812 3.41017L9.0332 1.16017L9.15137 1.11916C10.3744 0.74182 11.6377 1.65928 11.6377 2.96291V5.81252C11.6377 6.08859 11.4137 6.31241 11.1377 6.31252C10.8616 6.31252 10.6377 6.08866 10.6377 5.81252Z" fill="#1A202C"/>
<path d="M16.4189 10.4773C16.4188 10.3581 16.3349 10.2486 16.208 10.2195L16.1514 10.2126H14.6094C14.3234 10.2126 14.0704 10.3239 13.8877 10.5115L13.8789 10.5203L13.5293 10.1628L13.8779 10.5203C13.6923 10.7016 13.578 10.9507 13.5723 11.2205L13.5771 11.3376V11.3435C13.6199 11.8568 14.1098 12.2878 14.6992 12.2878H16.1514C16.3093 12.2821 16.4189 12.1585 16.4189 12.0222V10.4773ZM17.4189 12.0222C17.4189 12.7109 16.8685 13.2625 16.1865 13.2869C16.1807 13.2871 16.1748 13.2878 16.1689 13.2878H14.6992C13.6701 13.2878 12.6767 12.5355 12.582 11.4314L12.5811 11.4324C12.5211 10.8018 12.7621 10.2121 13.1797 9.80444C13.5512 9.42778 14.0599 9.21265 14.6094 9.21265H16.1865C16.8684 9.237 17.4188 9.78876 17.4189 10.4773V12.0222Z" fill="#1A202C"/>
<path d="M10.5 8.5C10.7761 8.5 11 8.72386 11 9C11 9.27614 10.7761 9.5 10.5 9.5H5.25C4.97386 9.5 4.75 9.27614 4.75 9C4.75 8.72386 4.97386 8.5 5.25 8.5H10.5Z" fill="#1A202C"/>
<path d="M6.625 14.2051V13.2451C6.625 13.0413 6.45876 12.875 6.25488 12.875H2.25C1.97386 12.875 1.75 12.6511 1.75 12.375C1.75 12.0989 1.97386 11.875 2.25 11.875H6.25488C7.01101 11.875 7.625 12.489 7.625 13.2451V14.2051C7.62496 14.4812 7.40112 14.7051 7.125 14.7051C6.84888 14.7051 6.62504 14.4812 6.625 14.2051Z" fill="#1A202C"/>
<path d="M2.81152 11.1065C3.00679 10.9113 3.3233 10.9112 3.51855 11.1065C3.71379 11.3018 3.71379 11.6183 3.51855 11.8135L2.95703 12.3751L3.51855 12.9366L3.58301 13.0147C3.7111 13.2088 3.68938 13.4728 3.51855 13.6436C3.34771 13.8144 3.0837 13.8362 2.88965 13.7081L2.81152 13.6436L1.89648 12.7286C1.80273 12.6348 1.75002 12.5077 1.75 12.3751C1.75 12.2425 1.80274 12.1153 1.89648 12.0215L2.81152 11.1065Z" fill="#1A202C"/>
<path d="M1.75 15.465V14.505C1.75 14.2289 1.97386 14.005 2.25 14.005C2.52614 14.005 2.75 14.2289 2.75 14.505V15.465C2.75 15.6689 2.91628 15.8351 3.12012 15.8351H7.125L7.22559 15.8449C7.45355 15.8914 7.625 16.0934 7.625 16.3351C7.62496 16.5768 7.45354 16.7788 7.22559 16.8253L7.125 16.8351H3.12012C2.36396 16.8351 1.75 16.2211 1.75 15.465Z" fill="#1A202C"/>
<path d="M5.85741 15.0667C6.05268 14.8715 6.36918 14.8715 6.56444 15.0667L7.47948 15.9818C7.57324 16.0755 7.62597 16.2027 7.62597 16.3353C7.62596 16.4679 7.57324 16.595 7.47948 16.6888L6.56444 17.6038C6.36919 17.799 6.05266 17.799 5.85741 17.6038C5.66217 17.4086 5.66219 17.0921 5.85741 16.8968L6.41894 16.3353L5.85741 15.7737C5.66215 15.5785 5.66215 15.262 5.85741 15.0667Z" fill="#1A202C"/>
</svg>
