<svg width="18" height="18" viewBox="0 0 18 18" fill="none" xmlns="http://www.w3.org/2000/svg">
<path d="M11.6854 9C11.6854 10.485 10.4854 11.685 9.00043 11.685C7.51543 11.685 6.31543 10.485 6.31543 9C6.31543 7.515 7.51543 6.315 9.00043 6.315C10.4854 6.315 11.6854 7.515 11.6854 9Z" stroke="#1A202C" stroke-linecap="round" stroke-linejoin="round"/>
<path d="M8.99988 15.2025C11.6474 15.2025 14.1149 13.6425 15.8324 10.9425C16.5074 9.885 16.5074 8.1075 15.8324 7.05C14.1149 4.35 11.6474 2.79 8.99988 2.79C6.35238 2.79 3.88488 4.35 2.16738 7.05C1.49238 8.1075 1.49238 9.885 2.16738 10.9425C3.88488 13.6425 6.35238 15.2025 8.99988 15.2025Z" stroke="#1A202C" stroke-linecap="round" stroke-linejoin="round"/>
</svg>
