<svg width="18" height="18" viewBox="0 0 18 18" fill="none" xmlns="http://www.w3.org/2000/svg">
<path d="M4.0498 1.575H13.9498C14.7748 1.575 15.4498 2.25 15.4498 3.075V4.725C15.4498 5.325 15.0748 6.075 14.6998 6.45L11.4748 9.3C11.0248 9.675 10.7248 10.425 10.7248 11.025V14.25C10.7248 14.7 10.4248 15.3 10.0498 15.525L8.9998 16.2C8.02481 16.8 6.6748 16.125 6.6748 14.925V10.95C6.6748 10.425 6.3748 9.75 6.0748 9.375L3.2248 6.375C2.8498 6 2.5498 5.325 2.5498 4.875V3.15C2.5498 2.25 3.2248 1.575 4.0498 1.575Z" stroke="#1A202C" stroke-miterlimit="10" stroke-linecap="round" stroke-linejoin="round"/>
<path d="M8.1975 1.575L4.5 7.5" stroke="#1A202C" stroke-miterlimit="10" stroke-linecap="round" stroke-linejoin="round"/>
</svg>
