<svg width="18" height="18" viewBox="0 0 18 18" fill="none" xmlns="http://www.w3.org/2000/svg">
<path d="M2.625 16.5V3.75C2.625 2.25 3.63 1.5 4.875 1.5H10.875C12.12 1.5 13.125 2.25 13.125 3.75V16.5H2.625Z" stroke="#1A202C" stroke-linecap="round" stroke-linejoin="round"/>
<path d="M1.5 16.5H14.25" stroke="#1A202C" stroke-linecap="round" stroke-linejoin="round"/>
<path d="M6.2925 7.5H9.465C10.245 7.5 10.8825 7.125 10.8825 6.0825V5.16001C10.8825 4.11751 10.245 3.74251 9.465 3.74251H6.2925C5.5125 3.74251 4.875 4.11751 4.875 5.16001V6.0825C4.875 7.125 5.5125 7.5 6.2925 7.5Z" stroke="#1A202C" stroke-linecap="round" stroke-linejoin="round"/>
<path d="M4.875 9.75H7.125" stroke="#1A202C" stroke-linecap="round" stroke-linejoin="round"/>
<path d="M13.125 12.0075L16.5 12V7.5L15 6.75" stroke="#1A202C" stroke-linecap="round" stroke-linejoin="round"/>
</svg>
