<svg width="18" height="18" viewBox="0 0 18 18" xmlns="http://www.w3.org/2000/svg">
<path d="M8.5 13.5V11.25C8.5 10.9739 8.72386 10.75 9 10.75C9.27614 10.75 9.5 10.9739 9.5 11.25V13.5C9.5 13.7761 9.27614 14 9 14C8.72386 14 8.5 13.7761 8.5 13.5Z" fill="#1A202C"/>
<path d="M7.42921 1.58703C8.40993 0.943476 9.83621 0.99079 10.7593 1.73156L15.9575 5.88683L15.9585 5.88781C16.3329 6.18928 16.6157 6.63345 16.7896 7.08898C16.9634 7.54462 17.0487 8.06485 16.9712 8.54015L16.9702 8.5421L15.9732 14.5128V14.5138C15.7524 15.8108 14.5168 16.8575 13.1997 16.8575H4.80031C3.47632 16.8575 2.2477 15.819 2.02687 14.5138V14.5128L1.02882 8.5421L1.0298 8.54113C0.948236 8.06507 1.03074 7.54469 1.20461 7.08898C1.379 6.63202 1.66437 6.18723 2.04347 5.88585L7.23976 1.72472L7.42921 1.58703ZM10.1343 2.51183C9.51384 2.01329 8.47697 2.01515 7.86574 2.50499H7.86476L2.6675 6.66808L2.66652 6.66906C2.46085 6.83253 2.26665 7.11149 2.13918 7.44542C2.02758 7.73793 1.982 8.03274 2.00246 8.27453L2.01515 8.37414L2.01613 8.37804H2.01515L3.0132 14.3468L3.0464 14.4991C3.25329 15.2542 4.01652 15.8575 4.80031 15.8575H13.1997C14.0276 15.8575 14.8476 15.1638 14.9868 14.3458L15.9839 8.37804C16.0259 8.11863 15.9837 7.78031 15.856 7.44542C15.7282 7.11059 15.535 6.83164 15.3325 6.66808L10.1353 2.51281L10.1343 2.51183Z" fill="#1A202C"/>
</svg>
