<svg width="24" height="23" viewBox="0 0 24 23" fill="none" xmlns="http://www.w3.org/2000/svg">
<path d="M7.54785 17.0957H4.82324V8.33594H7.54785V17.0957ZM6.1709 7.16406C5.32129 7.16406 4.61816 6.43164 4.61816 5.55273C4.61816 4.70312 5.32129 4 6.1709 4C7.0498 4 7.75293 4.70312 7.75293 5.55273C7.75293 6.43164 7.0498 7.16406 6.1709 7.16406ZM17.7139 17.0957H15.0186V12.8477C15.0186 11.8223 14.9893 10.5332 13.583 10.5332C12.1768 10.5332 11.9717 11.6172 11.9717 12.7598V17.0957H9.24707V8.33594H11.8545V9.53711H11.8838C12.2646 8.86328 13.1436 8.13086 14.4619 8.13086C17.2158 8.13086 17.7432 9.94727 17.7432 12.291V17.0957H17.7139Z" fill="#D6E4FD"/>
</svg>
