<svg width="24" height="23" viewBox="0 0 24 23" fill="none" xmlns="http://www.w3.org/2000/svg">
<path d="M18.1494 8.43848C18.1494 8.58496 18.1494 8.70215 18.1494 8.84863C18.1494 12.9209 15.0732 17.5791 9.41895 17.5791C7.66113 17.5791 6.0498 17.0811 4.70215 16.2021C4.93652 16.2314 5.1709 16.2607 5.43457 16.2607C6.87012 16.2607 8.18848 15.7627 9.24316 14.9424C7.89551 14.9131 6.75293 14.0342 6.37207 12.8037C6.57715 12.833 6.75293 12.8623 6.95801 12.8623C7.22168 12.8623 7.51465 12.8037 7.74902 12.7451C6.34277 12.4521 5.28809 11.2217 5.28809 9.72754V9.69824C5.69824 9.93262 6.19629 10.0498 6.69434 10.0791C5.84473 9.52246 5.31738 8.58496 5.31738 7.53027C5.31738 6.94434 5.46387 6.41699 5.72754 5.97754C7.25098 7.82324 9.53613 9.05371 12.085 9.2002C12.0264 8.96582 11.9971 8.73145 11.9971 8.49707C11.9971 6.79785 13.374 5.4209 15.0732 5.4209C15.9521 5.4209 16.7432 5.77246 17.3291 6.3877C18.0029 6.24121 18.6768 5.97754 19.2627 5.62598C19.0283 6.3584 18.5596 6.94434 17.915 7.3252C18.5303 7.2666 19.1455 7.09082 19.6729 6.85645C19.2627 7.47168 18.7354 7.99902 18.1494 8.43848Z" fill="#D6E4FD"/>
</svg>
