<svg width="24" height="23" viewBox="0 0 24 23" fill="none" xmlns="http://www.w3.org/2000/svg">
<path d="M11.1807 8.11621C13.0264 8.11621 14.5498 9.63965 14.5498 11.4854C14.5498 13.3604 13.0264 14.8545 11.1807 14.8545C9.30566 14.8545 7.81152 13.3604 7.81152 11.4854C7.81152 9.63965 9.30566 8.11621 11.1807 8.11621ZM11.1807 13.6826C12.3818 13.6826 13.3486 12.7158 13.3486 11.4854C13.3486 10.2842 12.3818 9.31738 11.1807 9.31738C9.9502 9.31738 8.9834 10.2842 8.9834 11.4854C8.9834 12.7158 9.97949 13.6826 11.1807 13.6826ZM15.458 7.99902C15.458 8.43848 15.1064 8.79004 14.667 8.79004C14.2275 8.79004 13.876 8.43848 13.876 7.99902C13.876 7.55957 14.2275 7.20801 14.667 7.20801C15.1064 7.20801 15.458 7.55957 15.458 7.99902ZM17.6846 8.79004C17.7432 9.87402 17.7432 13.126 17.6846 14.21C17.626 15.2646 17.3916 16.1729 16.6299 16.9639C15.8682 17.7256 14.9307 17.96 13.876 18.0186C12.792 18.0771 9.54004 18.0771 8.45605 18.0186C7.40137 17.96 6.49316 17.7256 5.70215 16.9639C4.94043 16.1729 4.70605 15.2646 4.64746 14.21C4.58887 13.126 4.58887 9.87402 4.64746 8.79004C4.70605 7.73535 4.94043 6.79785 5.70215 6.03613C6.49316 5.27441 7.40137 5.04004 8.45605 4.98145C9.54004 4.92285 12.792 4.92285 13.876 4.98145C14.9307 5.04004 15.8682 5.27441 16.6299 6.03613C17.3916 6.79785 17.626 7.73535 17.6846 8.79004ZM16.2783 15.3525C16.6299 14.5029 16.542 12.4521 16.542 11.4854C16.542 10.5479 16.6299 8.49707 16.2783 7.61816C16.0439 7.06152 15.6045 6.59277 15.0479 6.3877C14.1689 6.03613 12.1182 6.12402 11.1807 6.12402C10.2139 6.12402 8.16309 6.03613 7.31348 6.3877C6.72754 6.62207 6.28809 7.06152 6.05371 7.61816C5.70215 8.49707 5.79004 10.5479 5.79004 11.4854C5.79004 12.4521 5.70215 14.5029 6.05371 15.3525C6.28809 15.9385 6.72754 16.3779 7.31348 16.6123C8.16309 16.9639 10.2139 16.876 11.1807 16.876C12.1182 16.876 14.1689 16.9639 15.0479 16.6123C15.6045 16.3779 16.0732 15.9385 16.2783 15.3525Z" fill="#D6E4FD"/>
</svg>
