<svg width="139" height="56" viewBox="0 0 139 56" fill="none" xmlns="http://www.w3.org/2000/svg">
<g clip-path="url(#clip0_191_24589)">
<path d="M117.264 33.7259C115.139 33.7259 113.488 33.1492 112.311 31.9958C111.156 30.8194 110.579 29.17 110.579 27.0478V18.7434H107.323V14.695H107.669C108.593 14.695 109.309 14.4528 109.817 13.9684C110.325 13.4839 110.579 12.7804 110.579 11.8577V10.4044H115.116V14.695H119.446V18.7434H115.116V26.8056C115.116 27.4284 115.22 27.959 115.428 28.3973C115.659 28.8355 116.005 29.17 116.467 29.4007C116.952 29.6314 117.564 29.7467 118.303 29.7467C118.464 29.7467 118.649 29.7352 118.857 29.7121C119.088 29.689 119.307 29.666 119.515 29.6429V33.5183C119.192 33.5644 118.822 33.6106 118.407 33.6567C117.991 33.7028 117.61 33.7259 117.264 33.7259Z" fill="#1A202C"/>
<path d="M88.8355 33.5182V14.6949H93.0957V18.3973L92.7494 17.7398C93.1881 16.6095 93.9039 15.756 94.8968 15.1793C95.9128 14.5795 97.0904 14.2797 98.4297 14.2797C99.8151 14.2797 101.039 14.5795 102.101 15.1793C103.186 15.7791 104.029 16.621 104.63 17.7052C105.23 18.7663 105.53 20.0005 105.53 21.4076V33.5182H100.993V22.4803C100.993 21.6498 100.831 20.9347 100.508 20.3349C100.185 19.7352 99.7343 19.2738 99.157 18.9509C98.6028 18.6049 97.9448 18.4319 97.1828 18.4319C96.4439 18.4319 95.7858 18.6049 95.2085 18.9509C94.6312 19.2738 94.181 19.7352 93.8577 20.3349C93.5344 20.9347 93.3728 21.6498 93.3728 22.4803V33.5182H88.8355Z" fill="#1A202C"/>
<path d="M44.4037 40.4385V14.6949H48.664V18.4319L48.2483 17.4976C48.8949 16.4826 49.7723 15.6983 50.8807 15.1447C51.989 14.568 53.2706 14.2797 54.7253 14.2797C56.5033 14.2797 58.1081 14.718 59.5397 15.5945C60.9713 16.4711 62.1028 17.6476 62.934 19.1239C63.7884 20.6002 64.2155 22.2611 64.2155 24.1065C64.2155 25.9289 63.7999 27.5898 62.9687 29.0892C62.1374 30.5886 61.0059 31.7766 59.5743 32.6531C58.1427 33.5066 56.5148 33.9334 54.6906 33.9334C53.3283 33.9334 52.0698 33.6681 50.9153 33.1376C49.7839 32.5839 48.8833 31.7996 48.2137 30.7846L48.941 29.885V40.4385H44.4037ZM54.1711 29.7812C55.2102 29.7812 56.1338 29.539 56.942 29.0546C57.7502 28.5701 58.3736 27.9012 58.8123 27.0477C59.2741 26.1942 59.505 25.2138 59.505 24.1065C59.505 22.9993 59.2741 22.0304 58.8123 21.2C58.3736 20.3465 57.7502 19.6775 56.942 19.1931C56.1338 18.6856 55.2102 18.4319 54.1711 18.4319C53.1782 18.4319 52.2777 18.6741 51.4695 19.1585C50.6844 19.6429 50.0609 20.3234 49.5991 21.2C49.1604 22.0535 48.941 23.0223 48.941 24.1065C48.941 25.2138 49.1604 26.1942 49.5991 27.0477C50.0609 27.9012 50.6844 28.5701 51.4695 29.0546C52.2777 29.539 53.1782 29.7812 54.1711 29.7812Z" fill="#1A202C"/>
<path d="M31.2848 33.9334C29.83 33.9334 28.5601 33.6105 27.4748 32.9646C26.4126 32.3187 25.5929 31.4191 25.0156 30.2657C24.4615 29.1123 24.1844 27.7628 24.1844 26.2173V14.6949H28.7217V25.8367C28.7217 26.621 28.8718 27.313 29.172 27.9128C29.4952 28.4894 29.9455 28.9508 30.5228 29.2968C31.1231 29.6198 31.7928 29.7812 32.5317 29.7812C33.2706 29.7812 33.9286 29.6198 34.5059 29.2968C35.0832 28.9508 35.5335 28.4779 35.8567 27.8782C36.18 27.2784 36.3416 26.5633 36.3416 25.7329V14.6949H40.879V33.5182H36.5841V29.8158L36.9651 30.4733C36.5264 31.6267 35.799 32.4917 34.783 33.0684C33.7901 33.6451 32.624 33.9334 31.2848 33.9334Z" fill="#1A202C"/>
<path d="M-4.57764e-05 33.5181V7.73984H8.41652C11.1412 7.73984 13.508 8.29346 15.5169 9.40072C17.5489 10.4849 19.1191 11.9958 20.2274 13.9335C21.3358 15.8482 21.89 18.0742 21.89 20.6116C21.89 23.126 21.3358 25.3636 20.2274 27.3244C19.1191 29.262 17.5489 30.7845 15.5169 31.8918C13.508 32.976 11.1412 33.5181 8.41652 33.5181H-4.57764e-05ZM4.71046 29.3659H8.52043C10.2753 29.3659 11.7878 29.0083 13.0578 28.2932C14.3508 27.555 15.3553 26.5401 16.0711 25.2483C16.7869 23.9334 17.1448 22.3879 17.1448 20.6116C17.1448 18.8124 16.7869 17.2668 16.0711 15.975C15.3553 14.6832 14.3508 13.6798 13.0578 12.9647C11.7878 12.2496 10.2753 11.892 8.52043 11.892H4.71046V29.3659Z" fill="#1A202C"/>
<path d="M78.5067 24.2124C78.3058 24.5501 78.3875 24.8877 78.2432 25.2253C78.0996 25.563 77.7231 25.9006 77.6124 26.2382C77.3862 26.9135 77.2111 27.5887 77.0792 28.2639C77.0129 28.6015 76.9581 28.9391 76.9112 29.2768C76.8679 29.6144 76.815 29.952 76.8226 30.2897C76.8293 30.6273 76.8869 30.9649 77.0084 31.3025C77.0701 31.4713 77.1472 31.6402 77.2473 31.8089C77.3473 31.9778 77.4672 32.1466 77.6366 32.3153H75.0902C75.2597 32.1466 75.3794 31.9777 75.4795 31.8089C75.5796 31.6402 75.6567 31.4713 75.7183 31.3025C75.8398 30.9649 75.8974 30.6273 75.9041 30.2897C75.9118 29.952 75.8588 29.6144 75.8156 29.2768C75.7687 28.9391 75.7139 28.6015 75.6476 28.2639C75.5155 27.5886 75.3404 26.9135 75.1143 26.2382C75.0037 25.9006 74.6441 25.5989 74.5005 25.2612C74.3562 24.9236 74.421 24.5501 74.22 24.2124C74.22 24.2124 74.3376 26.4388 76.3636 26.4388C78.3896 26.4388 78.5067 24.2124 78.5067 24.2124Z" fill="#1A202C"/>
<path d="M75.702 22.1759C75.8892 22.0675 76.3321 21.9051 76.5662 21.986C76.8003 22.067 77.4073 22.4459 77.7342 22.4561C78.3893 22.4812 79.0288 22.4577 79.6549 22.3933C79.9681 22.3613 80.2777 22.3185 80.5849 22.2681C80.8909 22.2143 81.1998 22.1696 81.4903 22.0675C81.7808 21.9662 82.0557 21.8165 82.3109 21.6062C82.4381 21.5002 82.5607 21.3794 82.6762 21.2368C82.7916 21.0943 82.9009 20.9329 82.995 20.7246L83.7813 23.1442C83.5826 23.0307 83.3992 22.9643 83.222 22.9167C83.0448 22.8692 82.8747 22.8432 82.7092 22.8321C82.379 22.8116 82.0685 22.8518 81.7738 22.9404C81.4789 23.028 81.2025 23.1732 80.9231 23.3093C80.6449 23.4488 80.3692 23.5958 80.097 23.7536C79.5523 24.0689 79.0211 24.4251 78.5056 24.8299C78.2471 25.03 78.2326 25.3979 77.9844 25.6292C77.7363 25.8613 77.9647 25.7482 77.7342 26.034C77.7342 26.034 78.9974 24.6172 78.5056 23.3093C78.0138 22.0014 75.702 22.1759 75.702 22.1759Z" fill="#1A202C"/>
<path d="M75.7017 26.2488C75.4711 25.963 74.9908 25.8613 74.7428 25.6292C74.4944 25.3978 74.4803 25.0296 74.2218 24.8295C73.7064 24.4247 73.1751 24.0685 72.6304 23.7532C72.3582 23.5953 72.0824 23.4483 71.8042 23.3089C71.5249 23.1729 71.2486 23.0277 70.9535 22.9399C70.6588 22.8515 70.3483 22.8112 70.0181 22.8317C69.8528 22.8428 69.6825 22.8688 69.5053 22.9163C69.3281 22.9639 69.1447 23.0303 68.946 23.1438L69.7323 20.7241C69.8264 20.9326 69.9357 21.0939 70.0512 21.2364C70.1666 21.3789 70.2891 21.4998 70.4164 21.6057C70.6716 21.8161 70.9465 21.9657 71.237 22.067C71.5273 22.1691 71.8364 22.2138 72.1424 22.2676C72.4496 22.3181 72.7592 22.3609 73.0724 22.3929C73.6985 22.4573 74.3378 22.4808 74.9931 22.4556C75.32 22.4453 75.6214 22.047 75.9584 22.0054C76.2957 21.9632 76.6706 22.2714 77.0253 22.1754C77.0253 22.1754 74.8634 21.3256 74.3376 23.4028C73.8117 25.48 75.7017 26.2488 75.7017 26.2488Z" fill="#1A202C"/>
<path d="M76.3633 13.8066C82.1055 13.8067 86.7781 18.4716 86.7783 24.2119C86.7783 29.9523 82.1058 34.6181 76.3633 34.6182C70.621 34.6179 65.9493 29.9521 65.9492 24.2119C65.9494 18.4718 70.6211 13.8069 76.3633 13.8066ZM76.3633 18.4121C73.1614 18.4124 70.5568 21.017 70.5566 24.2119C70.5567 27.4071 73.1615 30.0124 76.3633 30.0127C79.5652 30.0126 82.1709 27.4072 82.1709 24.2119C82.1708 21.017 79.5653 18.4122 76.3633 18.4121Z" fill="#1A202C"/>
<path d="M116.894 48.0872C116.25 48.0872 115.67 47.9283 115.154 47.6104C114.639 47.2837 114.23 46.8466 113.93 46.2992C113.629 45.7429 113.479 45.1248 113.479 44.4449C113.479 43.7562 113.625 43.1381 113.917 42.5907C114.209 42.0344 114.6 41.5973 115.09 41.2795C115.588 40.9616 116.147 40.8027 116.765 40.8027C117.204 40.8027 117.612 40.8865 117.99 41.0543C118.368 41.2221 118.695 41.4561 118.97 41.7563C119.253 42.0565 119.472 42.4097 119.627 42.8158C119.782 43.2132 119.859 43.6458 119.859 44.1138C119.859 44.2021 119.855 44.286 119.846 44.3655C119.846 44.4449 119.837 44.5332 119.82 44.6304H113.775V44.1006H119.485L119.266 44.2728C119.292 43.7253 119.197 43.2353 118.982 42.8026C118.768 42.3611 118.467 42.0123 118.08 41.7563C117.693 41.4914 117.255 41.3589 116.765 41.3589C116.258 41.3589 115.799 41.4958 115.386 41.7695C114.982 42.0432 114.66 42.4141 114.42 42.8821C114.179 43.3412 114.059 43.8622 114.059 44.4449C114.059 45.0277 114.183 45.5531 114.432 46.021C114.682 46.489 115.017 46.8599 115.438 47.1336C115.867 47.3985 116.353 47.5309 116.894 47.5309C117.384 47.5309 117.827 47.4117 118.222 47.1733C118.617 46.9349 118.935 46.5994 119.176 46.1667L119.666 46.4316C119.502 46.7672 119.279 47.063 118.995 47.319C118.712 47.5663 118.389 47.7561 118.029 47.8885C117.676 48.021 117.298 48.0872 116.894 48.0872Z" fill="#1A202C"/>
<path d="M110.744 48.0872V38.071H111.337V48.0872H110.744Z" fill="#1A202C"/>
<path d="M105.679 48.0872C105.262 48.0872 104.885 48.0077 104.546 47.8488C104.216 47.681 103.951 47.4515 103.752 47.1601C103.552 46.8599 103.452 46.5155 103.452 46.127C103.452 45.8091 103.522 45.5045 103.661 45.2131C103.808 44.9129 104.043 44.6524 104.364 44.4317C104.694 44.2109 105.132 44.0564 105.679 43.9681L108.544 43.4781V44.0476L105.874 44.4979C105.197 44.6127 104.724 44.8158 104.455 45.1072C104.186 45.3985 104.051 45.7297 104.051 46.1005C104.051 46.542 104.212 46.8908 104.533 47.1468C104.854 47.4029 105.254 47.5309 105.731 47.5309C106.261 47.5309 106.716 47.4029 107.098 47.1468C107.489 46.8908 107.793 46.5552 108.01 46.1402C108.227 45.7164 108.335 45.2617 108.335 44.7761V43.094C108.335 42.573 108.157 42.158 107.801 41.849C107.454 41.5311 106.99 41.3722 106.408 41.3722C105.965 41.3722 105.557 41.4826 105.184 41.7033C104.811 41.924 104.52 42.2154 104.312 42.5774L103.791 42.2993C103.921 42.0344 104.112 41.7916 104.364 41.5708C104.624 41.3413 104.928 41.1558 105.275 41.0146C105.623 40.8733 106 40.8027 106.408 40.8027C106.903 40.8027 107.337 40.8998 107.71 41.094C108.092 41.2883 108.387 41.5576 108.596 41.902C108.813 42.2463 108.921 42.6437 108.921 43.094V47.9283H108.335V46.4051H108.387C108.274 46.6965 108.088 46.9702 107.827 47.2263C107.567 47.4824 107.255 47.6899 106.89 47.8488C106.525 48.0077 106.122 48.0872 105.679 48.0872Z" fill="#1A202C"/>
<path d="M98.9152 48.0872C98.2628 48.0872 97.684 47.9743 97.1786 47.7486C96.6824 47.5141 96.269 47.2102 95.9382 46.8368C95.6166 46.4634 95.3869 46.0727 95.2491 45.6646L95.8693 45.4822C96.1357 46.1421 96.5262 46.6501 97.0408 47.0061C97.5553 47.3535 98.1755 47.5271 98.9014 47.5271C99.3884 47.5271 99.8202 47.449 100.197 47.2927C100.574 47.1277 100.872 46.8976 101.093 46.6024C101.313 46.3071 101.424 45.9511 101.424 45.5343C101.424 45.0046 101.258 44.5965 100.927 44.3099C100.606 44.0147 100.229 43.8107 99.7973 43.6978L97.8815 43.1768C97.0913 42.9597 96.5262 42.621 96.1863 42.1608C95.8463 41.7006 95.6763 41.1796 95.6763 40.5978C95.6763 40.0942 95.805 39.6557 96.0622 39.2823C96.3195 38.9002 96.6687 38.605 97.1097 38.3966C97.5507 38.1795 98.0469 38.071 98.5982 38.071C99.1679 38.071 99.6778 38.1795 100.128 38.3966C100.587 38.605 100.973 38.8828 101.286 39.2302C101.607 39.5688 101.832 39.9379 101.961 40.3373L101.341 40.5197C101.102 39.9031 100.739 39.4342 100.252 39.113C99.7651 38.7917 99.2184 38.631 98.612 38.631C98.1893 38.631 97.8034 38.7135 97.4543 38.8785C97.1143 39.0348 96.8432 39.2606 96.6411 39.5558C96.4389 39.851 96.3379 40.2027 96.3379 40.6108C96.3379 41.0884 96.4711 41.4835 96.7376 41.7961C97.004 42.1087 97.4864 42.3649 98.1847 42.5646L99.9213 43.0595C100.592 43.2506 101.12 43.5632 101.506 43.9973C101.892 44.4228 102.085 44.9395 102.085 45.5473C102.085 46.051 101.947 46.4938 101.672 46.8759C101.396 47.2493 101.019 47.5445 100.542 47.7616C100.064 47.9787 99.5216 48.0872 98.9152 48.0872Z" fill="#1A202C"/>
<path d="M88.4131 48.0872C87.7252 48.0872 87.1061 47.9283 86.5558 47.6104C86.0054 47.2925 85.5698 46.8599 85.2487 46.3124C84.9277 45.7562 84.7672 45.1337 84.7672 44.4449C84.7672 43.7474 84.9277 43.1249 85.2487 42.5774C85.5698 42.03 86.0054 41.5973 86.5558 41.2795C87.1061 40.9616 87.7252 40.8027 88.4131 40.8027C89.1102 40.8027 89.7293 40.9616 90.2705 41.2795C90.8208 41.5973 91.2565 42.03 91.5775 42.5774C91.8985 43.1249 92.059 43.7474 92.059 44.4449C92.059 45.1337 91.8985 45.7562 91.5775 46.3124C91.2565 46.8599 90.8208 47.2925 90.2705 47.6104C89.7293 47.9283 89.1102 48.0872 88.4131 48.0872ZM88.4131 47.5177C88.9726 47.5177 89.4771 47.3852 89.9265 47.1204C90.3759 46.8466 90.7336 46.4758 90.9996 46.0078C91.2656 45.5398 91.3986 45.0189 91.3986 44.4449C91.3986 43.8622 91.2656 43.3412 90.9996 42.8821C90.7428 42.4141 90.3897 42.0477 89.9403 41.7828C89.4908 41.509 88.9818 41.3722 88.4131 41.3722C87.8536 41.3722 87.3446 41.509 86.886 41.7828C86.4365 42.0477 86.0788 42.4141 85.8128 42.8821C85.556 43.3412 85.4276 43.8622 85.4276 44.4449C85.4276 45.0189 85.5606 45.5398 85.8266 46.0078C86.0926 46.4758 86.4503 46.8466 86.8997 47.1204C87.3492 47.3852 87.8536 47.5177 88.4131 47.5177Z" fill="#1A202C"/>
<path d="M83.2751 48.0872C82.726 48.0872 82.3029 47.9422 82.0058 47.652C81.7087 47.3619 81.5602 46.9268 81.5602 46.3466V41.5994H80.2098V41.0719H80.885C81.1191 41.0719 81.2901 41.0148 81.3981 40.9005C81.5062 40.7862 81.5602 40.606 81.5602 40.3599V39.4368H82.1678V41.0719H83.7072V41.5994H82.1678V46.3466C82.1678 46.5048 82.1903 46.6762 82.2353 46.8609C82.2894 47.0455 82.3974 47.2037 82.5594 47.3356C82.7305 47.4586 82.987 47.5202 83.3291 47.5202C83.4011 47.5202 83.4911 47.5158 83.5992 47.507C83.7072 47.4982 83.7927 47.4894 83.8557 47.4806V48.0081C83.7657 48.0345 83.6577 48.052 83.5317 48.0608C83.4146 48.0784 83.3291 48.0872 83.2751 48.0872Z" fill="#1A202C"/>
<path d="M75.8246 48.0872C75.3955 48.0872 74.9953 47.9899 74.624 47.7952C74.2526 47.6006 73.9514 47.3171 73.7204 46.9448C73.4893 46.5724 73.3738 46.1154 73.3738 45.5738V41.2579H73.9308V45.5738C73.9308 45.997 74.0174 46.3566 74.1907 46.6528C74.3723 46.949 74.6116 47.1732 74.9087 47.3256C75.2057 47.4694 75.5276 47.5414 75.8741 47.5414C76.295 47.5414 76.6498 47.4441 76.9387 47.2494C77.2357 47.0463 77.4585 46.7755 77.6071 46.437C77.7556 46.0985 77.8299 45.7262 77.8299 45.32V41.2579H78.3869V47.9349H77.8299V46.5259L77.9784 46.5893C77.8464 47.0294 77.5864 47.389 77.1986 47.6683C76.819 47.9476 76.361 48.0872 75.8246 48.0872Z" fill="#1A202C"/>
<path d="M64.259 48.0872L68.0325 38.071H68.6888L72.4623 48.0872H71.7103L70.7259 45.4386H65.9954L65.011 48.0872H64.259ZM66.2141 44.8336H70.5072L68.1966 38.6222H68.5247L66.2141 44.8336Z" fill="#1A202C"/>
<path d="M76.5571 21.7832C77.9006 21.7834 78.9901 22.8718 78.9907 24.2139C78.9907 25.5564 77.901 26.6454 76.5571 26.6455C75.2132 26.6454 74.1235 25.5565 74.1235 24.2139C74.1242 22.8718 75.2135 21.7833 76.5571 21.7832ZM76.5571 22.2393C75.4676 22.2393 74.581 23.1255 74.5806 24.2139C74.5806 25.3026 75.4673 26.1884 76.5571 26.1885C77.6467 26.1882 78.5337 25.3023 78.5337 24.2139C78.5333 23.1256 77.6465 22.2395 76.5571 22.2393ZM76.5571 22.373C77.5727 22.3733 78.3985 23.1995 78.3989 24.2139C78.3989 25.2286 77.5729 26.0544 76.5571 26.0547C75.5413 26.0546 74.7144 25.2287 74.7144 24.2139C74.7148 23.1994 75.5415 22.3731 76.5571 22.373ZM76.5571 23.4541C76.1373 23.4541 75.7966 23.7945 75.7964 24.2139C75.7964 24.6334 76.1372 24.9738 76.5571 24.9736C76.9768 24.9733 77.3169 24.6332 77.3169 24.2139C77.3167 23.7947 76.9767 23.4544 76.5571 23.4541Z" fill="#1A202C"/>
</g>
<defs>
<clipPath id="clip0_191_24589">
<rect width="139" height="56" fill="white"/>
</clipPath>
</defs>
</svg>
