<svg width="160" height="66" viewBox="0 0 160 66" fill="none" xmlns="http://www.w3.org/2000/svg">
<g clip-path="url(#clip0_191_24587)">
<path d="M134.98 39.7484C132.534 39.7484 130.634 39.0687 129.279 37.7094C127.95 36.3228 127.285 34.379 127.285 31.8778V22.0904H123.537V17.3191H123.936C124.999 17.3191 125.823 17.0337 126.408 16.4627C126.993 15.8918 127.285 15.0626 127.285 13.9751V12.2623H132.508V17.3191H137.492V22.0904H132.508V31.5923C132.508 32.3263 132.628 32.9516 132.867 33.4682C133.133 33.9848 133.531 34.379 134.063 34.6508C134.621 34.9227 135.325 35.0586 136.176 35.0586C136.362 35.0586 136.575 35.045 136.814 35.0179C137.08 34.9907 137.332 34.9635 137.571 34.9363V39.5037C137.199 39.5581 136.774 39.6125 136.295 39.6668C135.817 39.7212 135.378 39.7484 134.98 39.7484Z" fill="white"/>
<path d="M102.257 39.5036V17.319H107.161V21.6825L106.762 20.9077C107.267 19.5755 108.091 18.5696 109.234 17.8899C110.403 17.183 111.759 16.8296 113.3 16.8296C114.895 16.8296 116.304 17.183 117.526 17.8899C118.776 18.5968 119.746 19.5891 120.437 20.8669C121.128 22.1175 121.473 23.572 121.473 25.2304V39.5036H116.251V26.4946C116.251 25.5159 116.065 24.6731 115.692 23.9662C115.32 23.2593 114.802 22.7156 114.138 22.335C113.5 21.9272 112.742 21.7233 111.865 21.7233C111.015 21.7233 110.257 21.9272 109.593 22.335C108.928 22.7156 108.41 23.2593 108.038 23.9662C107.666 24.6731 107.479 25.5159 107.479 26.4946V39.5036H102.257Z" fill="white"/>
<path d="M51.1122 47.6597V17.319H56.0161V21.7233L55.5376 20.6222C56.2818 19.426 57.2919 18.5016 58.5677 17.8491C59.8435 17.1694 61.3186 16.8296 62.9931 16.8296C65.0397 16.8296 66.887 17.3462 68.5349 18.3793C70.1828 19.4124 71.4852 20.7989 72.442 22.5389C73.4254 24.2788 73.9172 26.2363 73.9172 28.4113C73.9172 30.559 73.4387 32.5165 72.4819 34.2837C71.525 36.0508 70.2227 37.4509 68.5747 38.484C66.9268 39.49 65.053 39.9929 62.9532 39.9929C61.3851 39.9929 59.9365 39.6803 58.6075 39.055C57.3051 38.4025 56.2686 37.4781 55.4978 36.2819L56.335 35.2216V47.6597H51.1122ZM62.3552 35.0993C63.5513 35.0993 64.6144 34.8138 65.5447 34.2429C66.475 33.6719 67.1926 32.8835 67.6976 31.8776C68.2292 30.8717 68.495 29.7162 68.495 28.4113C68.495 27.1063 68.2292 25.9644 67.6976 24.9857C67.1926 23.9798 66.475 23.1914 65.5447 22.6204C64.6144 22.0223 63.5513 21.7233 62.3552 21.7233C61.2123 21.7233 60.1757 22.0087 59.2454 22.5797C58.3417 23.1506 57.6241 23.9526 57.0925 24.9857C56.5875 25.9916 56.335 27.1335 56.335 28.4113C56.335 29.7162 56.5875 30.8717 57.0925 31.8776C57.6241 32.8835 58.3417 33.6719 59.2454 34.2429C60.1757 34.8138 61.2123 35.0993 62.3552 35.0993Z" fill="white"/>
<path d="M36.0112 39.993C34.3367 39.993 32.8749 39.6124 31.6256 38.8511C30.403 38.0899 29.4594 37.0296 28.795 35.6703C28.1571 34.3109 27.8381 32.7205 27.8381 30.8989V17.319H33.0609V30.4503C33.0609 31.3747 33.2337 32.1903 33.5792 32.8972C33.9513 33.5769 34.4696 34.1206 35.1341 34.5284C35.8252 34.909 36.596 35.0993 37.4465 35.0993C38.297 35.0993 39.0545 34.909 39.719 34.5284C40.3835 34.1206 40.9018 33.5633 41.2739 32.8564C41.646 32.1495 41.8321 31.3067 41.8321 30.328V17.319H47.0549V39.5036H42.1112V35.1401L42.5497 35.9149C42.0447 37.2743 41.2075 38.2938 40.038 38.9735C38.8951 39.6531 37.5528 39.993 36.0112 39.993Z" fill="white"/>
<path d="M-6.10352e-05 39.5034V9.12195H9.68807C12.8244 9.12195 15.5488 9.77444 17.8612 11.0794C20.2002 12.3572 22.0075 14.1379 23.2833 16.4217C24.5592 18.6782 25.1971 21.3017 25.1971 24.2923C25.1971 27.2557 24.5592 29.8928 23.2833 32.2037C22.0075 34.4874 20.2002 36.2818 17.8612 37.5867C15.5488 38.8645 12.8244 39.5034 9.68807 39.5034H-6.10352e-05ZM5.4221 34.6098H9.80768C11.8277 34.6098 13.5686 34.1884 15.0305 33.3456C16.5189 32.4756 17.6751 31.2793 18.4991 29.7569C19.323 28.2072 19.735 26.3857 19.735 24.2923C19.735 22.1717 19.323 20.3502 18.4991 18.8277C17.6751 17.3052 16.5189 16.1226 15.0305 15.2798C13.5686 14.437 11.8277 14.0156 9.80768 14.0156H5.4221V34.6098Z" fill="white"/>
<path d="M90.3675 28.5361C90.1362 28.934 90.2302 29.3319 90.0641 29.7299C89.8988 30.1278 89.4654 30.5257 89.3381 30.9236C89.0776 31.7195 88.8761 32.5153 88.7242 33.311C88.6479 33.7089 88.5849 34.1068 88.5309 34.5048C88.4811 34.9027 88.4202 35.3006 88.429 35.6985C88.4367 36.0964 88.503 36.4944 88.6428 36.8923C88.7138 37.0912 88.8026 37.2902 88.9177 37.4891C89.0329 37.6881 89.1709 37.887 89.3658 38.0859H86.4348C86.6298 37.887 86.7677 37.688 86.8829 37.4891C86.9981 37.2902 87.0869 37.0912 87.1578 36.8923C87.2977 36.4944 87.364 36.0964 87.3717 35.6985C87.3805 35.3006 87.3196 34.9027 87.2697 34.5048C87.2158 34.1068 87.1527 33.7089 87.0764 33.311C86.9244 32.5152 86.7228 31.7195 86.4626 30.9236C86.3352 30.5257 85.9212 30.1701 85.7559 29.7722C85.5899 29.3742 85.6645 28.934 85.4332 28.5361C85.4332 28.5361 85.5684 31.1601 87.9006 31.1601C90.2327 31.1601 90.3675 28.5361 90.3675 28.5361Z" fill="white"/>
<path d="M87.1389 26.1358C87.3545 26.0081 87.8643 25.8167 88.1337 25.9121C88.4032 26.0075 89.102 26.4541 89.4782 26.4661C90.2323 26.4957 90.9685 26.468 91.6891 26.3921C92.0496 26.3544 92.406 26.3039 92.7595 26.2445C93.1119 26.1811 93.4674 26.1284 93.8017 26.0081C94.1362 25.8887 94.4526 25.7123 94.7463 25.4644C94.8928 25.3395 95.0339 25.1971 95.1668 25.0291C95.2997 24.8611 95.4255 24.6709 95.5338 24.4254L96.4389 27.2771C96.2102 27.1433 95.9991 27.0651 95.7951 27.0089C95.5911 26.953 95.3953 26.9224 95.2049 26.9093C94.8248 26.8851 94.4674 26.9325 94.1282 27.0369C93.7886 27.1402 93.4705 27.3113 93.1489 27.4717C92.8286 27.636 92.5113 27.8094 92.198 27.9953C91.571 28.3669 90.9595 28.7867 90.3662 29.2638C90.0686 29.4996 90.0519 29.9332 89.7662 30.2059C89.4807 30.4794 89.7436 30.3461 89.4782 30.683C89.4782 30.683 90.9323 29.0132 90.3662 27.4717C89.8001 25.9302 87.1389 26.1358 87.1389 26.1358Z" fill="white"/>
<path d="M87.1387 30.9361C86.8732 30.5992 86.3204 30.4793 86.0348 30.2058C85.749 29.9331 85.7328 29.4991 85.4352 29.2633C84.8419 28.7862 84.2303 28.3664 83.6034 27.9948C83.2901 27.8087 82.9726 27.6355 82.6523 27.4712C82.3308 27.3109 82.0127 27.1398 81.6731 27.0364C81.3338 26.9321 80.9764 26.8846 80.5963 26.9088C80.4061 26.9219 80.2101 26.9524 80.0061 27.0084C79.8021 27.0646 79.591 27.1428 79.3623 27.2766L80.2674 24.4249C80.3757 24.6706 80.5015 24.8606 80.6344 25.0286C80.7673 25.1966 80.9083 25.339 81.0549 25.4639C81.3486 25.7118 81.665 25.8882 81.9995 26.0076C82.3336 26.1279 82.6893 26.1806 83.0417 26.244C83.3952 26.3034 83.7516 26.3539 84.1121 26.3916C84.8328 26.4675 85.5687 26.4952 86.323 26.4656C86.6993 26.4534 87.0462 25.984 87.4341 25.9349C87.8224 25.8852 88.254 26.2484 88.6623 26.1353C88.6623 26.1353 86.1737 25.1337 85.5684 27.5819C84.9631 30.03 87.1387 30.9361 87.1387 30.9361Z" fill="white"/>
<path d="M87.9004 16.54C94.4185 16.5403 99.6611 21.9524 99.6611 28.5361C99.661 35.1197 94.4186 40.532 87.9004 40.5322C81.3824 40.532 76.1388 35.1195 76.1387 28.5361C76.1387 21.9526 81.3823 16.5403 87.9004 16.54ZM87.9004 21.4326C84.1229 21.4329 80.9893 24.5887 80.9893 28.5361C80.9894 32.4836 84.1232 35.6394 87.9004 35.6396C91.6777 35.6394 94.8104 32.4836 94.8105 28.5361C94.8107 24.5888 91.678 21.4328 87.9004 21.4326Z" fill="white"/>
<path d="M134.406 47.9384C134.931 47.9384 135.422 48.0419 135.878 48.249C136.332 48.4552 136.725 48.7429 137.055 49.1123H137.054C137.394 49.4808 137.656 49.9132 137.841 50.4082L137.905 50.5927C138.047 51.0278 138.117 51.4943 138.117 51.9912C138.117 52.1 138.112 52.2043 138.101 52.3037C138.1 52.4032 138.09 52.5111 138.07 52.6259L138.049 52.75H131.457C131.499 53.2685 131.631 53.7414 131.854 54.1699C132.13 54.6993 132.497 55.1164 132.958 55.4238L133.136 55.5273C133.56 55.7543 134.032 55.8681 134.554 55.8681C135.092 55.8681 135.574 55.7351 136.004 55.4697C136.435 55.2036 136.783 54.8278 137.049 54.3388L137.121 54.206L137.254 54.2793L137.817 54.5918L137.94 54.6601L137.88 54.7871C137.683 55.2 137.415 55.5643 137.075 55.8789L137.073 55.8808C136.733 56.1846 136.345 56.4166 135.913 56.5791L135.914 56.58C135.49 56.7431 135.036 56.8242 134.554 56.8242C133.786 56.8242 133.09 56.6298 132.471 56.2392L132.469 56.2383C131.854 55.839 131.367 55.3042 131.01 54.6377V54.6367C130.651 53.9579 130.472 53.2053 130.472 52.3818C130.472 51.653 130.605 50.9854 130.872 50.3818L130.994 50.1269C131.341 49.451 131.808 48.9163 132.394 48.5263L132.395 48.5254C132.994 48.1342 133.666 47.9385 134.406 47.9384ZM134.406 48.8945C133.852 48.8945 133.352 49.0472 132.903 49.3525C132.461 49.6594 132.106 50.0758 131.84 50.6064V50.6084C131.651 50.977 131.53 51.3825 131.475 51.8261H137.135C137.118 51.342 137.014 50.9046 136.823 50.5117V50.5107C136.586 50.0128 136.257 49.6226 135.836 49.3369L135.834 49.3359C135.415 49.0421 134.94 48.8945 134.406 48.8945Z" fill="white" stroke="white" stroke-width="0.3"/>
<path d="M128.307 44.7189V56.8244H127.325V44.7189H128.307Z" fill="white" stroke="white" stroke-width="0.3"/>
<path d="M122.484 47.9384C123.073 47.9384 123.597 48.0572 124.052 48.2988C124.514 48.5395 124.875 48.8756 125.13 49.3056C125.396 49.7377 125.527 50.2339 125.527 50.789V56.6367H124.553V55.3818C124.456 55.5134 124.347 55.6419 124.224 55.7656C123.911 56.0815 123.535 56.336 123.099 56.5302C122.659 56.7269 122.173 56.8241 121.645 56.8242C121.146 56.8242 120.688 56.7263 120.276 56.5283L120.271 56.5263C119.87 56.3174 119.546 56.0301 119.302 55.665L119.301 55.6631C119.054 55.283 118.932 54.8483 118.931 54.3642C118.931 53.9675 119.016 53.5866 119.185 53.2236L119.186 53.2216C119.369 52.8415 119.657 52.5157 120.045 52.2431L120.047 52.2422C120.45 51.9661 120.976 51.7782 121.619 51.6718L124.553 51.1582V50.789C124.552 50.2124 124.362 49.7666 123.988 49.4345L123.985 49.4316C123.619 49.0886 123.124 48.9101 122.484 48.9101C122.002 48.9101 121.559 49.0326 121.153 49.2783C120.745 49.5254 120.429 49.8504 120.202 50.2539L120.129 50.3838L119.999 50.3125L119.399 49.9843L119.275 49.916L119.337 49.7881C119.496 49.4563 119.728 49.1543 120.03 48.8828C120.343 48.6 120.709 48.3727 121.123 48.2002C121.542 48.0255 121.997 47.9384 122.484 47.9384ZM121.895 52.5918C121.128 52.725 120.624 52.9565 120.347 53.2627C120.061 53.5803 119.922 53.9353 119.922 54.333C119.922 54.8128 120.089 55.1797 120.421 55.4502C120.76 55.7267 121.184 55.8681 121.705 55.8681C122.289 55.8681 122.783 55.7246 123.194 55.4424L123.195 55.4414C123.623 55.1543 123.955 54.7786 124.193 54.3125C124.432 53.8343 124.553 53.3211 124.553 52.7715V52.1328L121.895 52.5918Z" fill="white" stroke="white" stroke-width="0.3"/>
<path d="M113.495 44.7189C114.17 44.719 114.78 44.8511 115.322 45.1183H115.321C115.865 45.3714 116.325 45.7099 116.698 46.134L116.836 46.2902C117.148 46.6611 117.372 47.0629 117.508 47.4953L117.554 47.6398L117.409 47.6838L116.695 47.8986L116.561 47.9396L116.511 47.8088C116.246 47.1067 115.845 46.5807 115.314 46.2219C114.779 45.8605 114.179 45.6799 113.51 45.6799C113.044 45.6799 112.622 45.7725 112.243 45.9562L112.242 45.9572C111.874 46.1302 111.583 46.3778 111.366 46.7023C111.152 47.022 111.043 47.4067 111.043 47.8625C111.043 48.3967 111.188 48.8263 111.468 49.1633C111.746 49.4973 112.266 49.7892 113.06 50.0217L115.059 50.6047C115.853 50.8361 116.486 51.2179 116.953 51.7541H116.954C117.424 52.285 117.658 52.9306 117.658 53.6808C117.658 54.3028 117.491 54.8556 117.155 55.3332L117.154 55.3342C116.82 55.7974 116.365 56.1606 115.794 56.426C115.222 56.6923 114.576 56.8244 113.859 56.8244C113.09 56.8244 112.402 56.6877 111.797 56.4113L111.794 56.4103C111.207 56.126 110.714 55.7557 110.319 55.299L110.318 55.2971C109.937 54.8445 109.662 54.3677 109.497 53.8664L109.449 53.7199L109.596 53.675L110.31 53.4601L110.442 53.4211L110.493 53.549C110.79 54.3039 111.224 54.8772 111.789 55.2775C112.352 55.6662 113.034 55.8644 113.843 55.8644C114.385 55.8644 114.86 55.7745 115.271 55.6008C115.683 55.4159 116.008 55.1608 116.245 54.8361C116.477 54.5174 116.596 54.1293 116.596 53.6652C116.596 53.0734 116.417 52.6371 116.076 52.3342L116.073 52.3322L116.175 52.2228L116.073 52.3312C115.721 52.0006 115.309 51.7724 114.836 51.6457H114.835L112.629 51.0314H112.628C111.7 50.7701 111.014 50.3567 110.596 49.7775C110.186 49.209 109.981 48.564 109.981 47.8478C109.981 47.2281 110.136 46.6808 110.451 46.2131C110.762 45.7398 111.185 45.3749 111.715 45.1183C112.246 44.8514 112.84 44.7189 113.495 44.7189Z" fill="white" stroke="white" stroke-width="0.3"/>
<path d="M101.77 47.9384C102.596 47.9384 103.336 48.132 103.984 48.5215C104.64 48.9095 105.161 49.4389 105.543 50.1064C105.927 50.7765 106.117 51.5366 106.117 52.3818C106.117 53.2171 105.927 53.9765 105.543 54.6562V54.6572C105.161 55.3245 104.641 55.8522 103.985 56.2402C103.336 56.6302 102.597 56.8242 101.77 56.8242C100.954 56.8241 100.214 56.6305 99.5562 56.2412C98.9002 55.8532 98.3799 55.3247 97.9976 54.6572V54.6562C97.6145 53.9765 97.4234 53.2171 97.4234 52.3818C97.4234 51.5366 97.6139 50.7765 97.9976 50.1064C98.3799 49.4389 98.9001 48.9095 99.5562 48.5215C100.214 48.1322 100.954 47.9385 101.77 47.9384ZM101.77 48.9101C101.23 48.9102 100.734 49.028 100.282 49.2636L100.09 49.372C99.5965 49.6701 99.2028 50.0827 98.9087 50.6123L98.9077 50.6113C98.6256 51.1279 98.4839 51.7174 98.4839 52.3818C98.484 53.0344 98.6316 53.6228 98.9243 54.1504C99.2186 54.6804 99.614 55.0985 100.109 55.4072C100.601 55.7032 101.153 55.8524 101.77 55.8525C102.387 55.8525 102.94 55.703 103.431 55.4072C103.926 55.0985 104.322 54.6805 104.617 54.1504C104.91 53.6228 105.057 53.0344 105.057 52.3818C105.057 51.7181 104.91 51.1295 104.618 50.6133L104.616 50.6103C104.332 50.0816 103.944 49.6698 103.451 49.372L103.449 49.3711C102.957 49.0645 102.399 48.9101 101.77 48.9101Z" fill="white" stroke="white" stroke-width="0.3"/>
<path d="M94.7312 46.3287V48.2564H96.5037V49.1783H94.7312V54.6227C94.7312 54.7948 94.7552 54.9845 94.8044 55.192C94.8576 55.3748 94.9627 55.5329 95.1238 55.6685C95.2836 55.7853 95.5405 55.856 95.9187 55.856C95.9958 55.856 96.0948 55.8515 96.2166 55.8414C96.3397 55.8311 96.4354 55.8209 96.5037 55.8111L96.6746 55.7867V56.693L96.5681 56.7242C96.454 56.7585 96.3215 56.7794 96.1736 56.7906C96.0383 56.8114 95.9305 56.8238 95.8562 56.8238C95.1971 56.8238 94.6668 56.6451 94.2888 56.2672C93.909 55.8872 93.7322 55.3294 93.7322 54.6227V49.1783H92.1775V48.2564H93.1052C93.3525 48.2564 93.5009 48.194 93.5857 48.1021C93.673 48.0074 93.7322 47.8401 93.7322 47.567V46.3287H94.7312Z" fill="white" stroke="white" stroke-width="0.3"/>
<path d="M85.25 48.475V53.7123C85.2501 54.1895 85.3447 54.5857 85.5274 54.9067H85.5284C85.7232 55.2322 85.9774 55.4761 86.292 55.642C86.6123 55.8008 86.9601 55.8813 87.3369 55.8813C87.7971 55.8813 88.1748 55.7718 88.4776 55.5629C88.7951 55.3403 89.0341 55.0442 89.1944 54.6703C89.3565 54.2919 89.4385 53.873 89.4385 53.4125V48.475H90.3799V56.645H89.4385V55.8383C89.3001 56.008 89.1377 56.1616 88.9512 56.2993L88.9522 56.3002C88.486 56.6514 87.9258 56.8246 87.2803 56.8246C86.7621 56.8246 86.2768 56.7036 85.8272 56.4623C85.3747 56.2195 85.0086 55.8661 84.7295 55.4057C84.4463 54.9384 84.3087 54.3713 84.3086 53.7123V48.475H85.25Z" fill="white" stroke="white" stroke-width="0.3"/>
<path d="M79.1713 44.7189L79.2075 44.8176L83.5502 56.6223L83.6245 56.8244H82.4389L82.4037 56.7258L81.3061 53.7023H76.0707L74.9741 56.7258L74.9379 56.8244H73.7524L73.8266 56.6223L78.1703 44.8176L78.2065 44.7189H79.1713ZM76.4321 52.6896H80.9448L78.6879 46.4777L76.4321 52.6896Z" fill="white" stroke="white" stroke-width="0.3"/>
<path d="M88.1235 25.6729C89.67 25.6731 90.9238 26.9563 90.9243 28.5381C90.9243 30.1203 89.6704 31.403 88.1235 31.4033C86.5765 31.4033 85.3218 30.1205 85.3218 28.5381C85.3223 26.9562 86.5769 25.6729 88.1235 25.6729ZM88.1226 26.2109C86.8685 26.2112 85.8485 27.2554 85.8481 28.5381C85.8482 29.8211 86.8683 30.865 88.1226 30.8652C89.377 30.8652 90.3979 29.8211 90.3979 28.5381C90.3976 27.2553 89.3768 26.211 88.1226 26.2109ZM88.1226 26.3682C89.2918 26.3682 90.2433 27.3423 90.2437 28.5381C90.2436 29.7342 89.292 30.707 88.1226 30.707C86.9534 30.7068 86.0025 29.734 86.0024 28.5381C86.0028 27.3424 86.9536 26.3684 88.1226 26.3682ZM88.1226 27.6426C87.6394 27.6427 87.2477 28.0439 87.2476 28.5381C87.2477 29.0323 87.6394 29.4327 88.1226 29.4326C88.6058 29.4325 88.9974 29.0323 88.9976 28.5381C88.9974 28.0438 88.6058 27.6426 88.1226 27.6426Z" fill="white"/>
</g>
<defs>
<clipPath id="clip0_191_24587">
<rect width="160" height="66" fill="white"/>
</clipPath>
</defs>
</svg>
