<svg width="18" height="18" viewBox="0 0 18 18" fill="none" xmlns="http://www.w3.org/2000/svg">
<path d="M8.87207 1.91331C9.41942 1.83792 10.1607 2.07007 11.2939 3.20335L13.8887 5.79807C14.9036 6.81299 15.1801 7.53719 15.1338 8.11643C15.0854 8.72081 14.6777 9.34207 13.8887 10.1311L9.71094 14.3088C8.69288 15.3269 8.07559 15.6848 7.54492 15.6848C7.02053 15.6848 6.39502 15.3252 5.37695 14.3147L2.7832 11.7219C1.67039 10.6091 1.34144 9.98733 1.36035 9.49241C1.36967 9.24934 1.46488 8.97788 1.69922 8.6301C1.87701 8.36627 2.12205 8.07648 2.44043 7.74046L2.78418 7.38792L6.96094 3.20335C7.71424 2.45006 8.27859 1.99506 8.87207 1.91331ZM8.96094 2.04124C8.58516 2.0734 8.26048 2.24431 7.9668 2.46116C7.67646 2.67556 7.3751 2.96682 7.0498 3.29026L2.87012 7.46995C2.48135 7.86055 2.15076 8.19102 1.91992 8.48167C1.68937 8.77199 1.49698 9.09613 1.48242 9.48069C1.46772 9.87024 1.63865 10.2111 1.87012 10.5266C2.10101 10.8412 2.44271 11.1978 2.87109 11.6262L5.4668 14.2209C5.86213 14.6163 6.20206 14.942 6.51074 15.1672C6.82152 15.3939 7.15695 15.5619 7.54102 15.5627C7.92549 15.5635 8.26187 15.396 8.57422 15.1692C8.88423 14.944 9.22558 14.6184 9.62305 14.2209L13.8008 10.0432C14.1159 9.72809 14.3978 9.42845 14.6064 9.13108C14.8176 8.83003 14.9762 8.50031 15.0059 8.12522C15.0655 7.37054 14.5895 6.67464 13.8008 5.88596L11.2061 3.29124C10.7856 2.87081 10.4126 2.55039 10.0625 2.34007C9.70559 2.12567 9.34358 2.0085 8.96094 2.04124Z" fill="#1A202C" stroke="#1A202C"/>
<path d="M15.1052 16.095C14.2502 16.095 13.5752 15.765 13.2452 15.1875C12.9152 14.61 12.9827 13.86 13.4252 13.125L13.9202 12.3075C14.2127 11.8275 14.6402 11.55 15.1052 11.55C15.5702 11.55 16.0052 11.8275 16.2902 12.3075L16.7852 13.125C17.2277 13.86 17.2877 14.61 16.9652 15.1875C16.6427 15.765 15.9527 16.095 15.1052 16.095ZM15.1052 12.675C15.0677 12.675 14.9777 12.735 14.8802 12.885L14.3852 13.7025C14.1602 14.0775 14.1002 14.415 14.2202 14.6325C14.3402 14.85 14.6627 14.97 15.0977 14.97C15.5327 14.97 15.8552 14.85 15.9752 14.6325C16.0952 14.415 16.0352 14.085 15.8102 13.7025L15.3152 12.885C15.2327 12.7275 15.1427 12.675 15.1052 12.675Z" fill="#1A202C"/>
<path d="M1.50047 9.74249C1.25297 9.74249 1.02797 9.57749 0.960468 9.32999C0.877968 9.02999 1.05797 8.72249 1.35797 8.63999C5.61047 7.48499 10.118 7.44749 14.393 8.54249L14.768 8.63999C15.068 8.71499 15.248 9.02249 15.173 9.32249C15.098 9.62249 14.7905 9.80249 14.4905 9.72749L14.1155 9.62999C10.028 8.57999 5.72297 8.61749 1.65797 9.72749C1.59797 9.74249 1.54547 9.74249 1.50047 9.74249Z" fill="#1A202C"/>
</svg>
