<svg width="18" height="18" viewBox="0 0 18 18" fill="none" xmlns="http://www.w3.org/2000/svg">
<path d="M15.8101 6.43503V11.565C15.8101 12.405 15.3601 13.185 14.6326 13.6125L10.1776 16.185C9.45012 16.605 8.55012 16.605 7.81512 16.185L3.36012 13.6125C2.63262 13.1925 2.18262 12.4125 2.18262 11.565V6.43503C2.18262 5.59503 2.63262 4.81499 3.36012 4.38749L7.81512 1.815C8.54262 1.395 9.44262 1.395 10.1776 1.815L14.6326 4.38749C15.3601 4.81499 15.8101 5.58753 15.8101 6.43503Z" stroke="#1A202C" stroke-linecap="round" stroke-linejoin="round"/>
<path d="M9.00043 8.25C9.96555 8.25 10.7479 7.4676 10.7479 6.50249C10.7479 5.53737 9.96555 4.75502 9.00043 4.75502C8.03531 4.75502 7.25293 5.53737 7.25293 6.50249C7.25293 7.4676 8.03531 8.25 9.00043 8.25Z" stroke="#1A202C" stroke-linecap="round" stroke-linejoin="round"/>
<path d="M12 12.495C12 11.145 10.6575 10.05 9 10.05C7.3425 10.05 6 11.145 6 12.495" stroke="#1A202C" stroke-linecap="round" stroke-linejoin="round"/>
</svg>
