<svg width="18" height="18" viewBox="0 0 18 18" xmlns="http://www.w3.org/2000/svg">
<path d="M5.37735 17.0625C3.59235 17.0625 2.12988 15.765 2.12988 14.1675V12.6375C2.12988 12.33 2.38488 12.075 2.69238 12.075C2.99988 12.075 3.25488 12.33 3.25488 12.6375C3.25488 13.575 4.16235 14.28 5.37735 14.28C6.59235 14.28 7.49986 13.575 7.49986 12.6375C7.49986 12.33 7.75486 12.075 8.06236 12.075C8.36986 12.075 8.62486 12.33 8.62486 12.6375V14.1675C8.62486 15.765 7.16985 17.0625 5.37735 17.0625ZM3.44984 14.9025C3.77984 15.5175 4.52235 15.9375 5.37735 15.9375C6.23235 15.9375 6.97486 15.51 7.30486 14.9025C6.77236 15.225 6.11235 15.4125 5.37735 15.4125C4.64235 15.4125 3.98234 15.225 3.44984 14.9025Z"/>
<path d="M5.37735 13.3499C4.14735 13.3499 3.04488 12.7874 2.49738 11.8949C2.25738 11.5049 2.12988 11.0474 2.12988 10.5824C2.12988 9.79495 2.47487 9.05994 3.10487 8.51244C4.31987 7.44744 6.41236 7.44748 7.63486 8.50498C8.26486 9.05998 8.61736 9.79495 8.61736 10.5824C8.61736 11.0474 8.48986 11.5049 8.24986 11.8949C7.70986 12.7874 6.60735 13.3499 5.37735 13.3499ZM5.37735 8.81246C4.79235 8.81246 4.25237 9.00744 3.84737 9.35994C3.46487 9.68994 3.25488 10.1249 3.25488 10.5824C3.25488 10.8449 3.32235 11.085 3.45735 11.31C3.80235 11.88 4.53735 12.2325 5.37735 12.2325C6.21735 12.2325 6.95234 11.88 7.28984 11.3175C7.42484 11.1 7.49236 10.8525 7.49236 10.59C7.49236 10.1325 7.28237 9.69744 6.89987 9.35994C6.50237 9.00744 5.96235 8.81246 5.37735 8.81246Z"/>
<path d="M5.37735 15.4125C3.52485 15.4125 2.12988 14.22 2.12988 12.645V10.5825C2.12988 8.98499 3.58485 7.6875 5.37735 7.6875C6.22485 7.6875 7.03486 7.98002 7.64236 8.50502C8.27236 9.06002 8.62486 9.79499 8.62486 10.5825V12.645C8.62486 14.22 7.22985 15.4125 5.37735 15.4125ZM5.37735 8.8125C4.20735 8.8125 3.25488 9.60749 3.25488 10.5825V12.645C3.25488 13.5825 4.16235 14.2875 5.37735 14.2875C6.59235 14.2875 7.49986 13.5825 7.49986 12.645V10.5825C7.49986 10.125 7.28988 9.68998 6.90738 9.35248C6.50238 9.00748 5.96235 8.8125 5.37735 8.8125Z"/>
<path d="M14.2799 11.0999C13.1474 11.0999 12.1874 10.2599 12.0974 9.17995C12.0374 8.55745 12.2624 7.94996 12.7124 7.50746C13.0874 7.11746 13.6199 6.89996 14.1824 6.89996H15.7499C16.4924 6.92246 17.0624 7.50743 17.0624 8.22743V9.77248C17.0624 10.4925 16.4925 11.0774 15.7725 11.0999H14.2799ZM15.7274 8.02496H14.1899C13.9274 8.02496 13.6874 8.12246 13.5149 8.30246C13.2974 8.51246 13.1924 8.79744 13.2224 9.08244C13.2599 9.57744 13.7399 9.97495 14.2799 9.97495H15.7499C15.8474 9.97495 15.9374 9.88498 15.9374 9.77248V8.22743C15.9374 8.11493 15.8474 8.03246 15.7274 8.02496Z"/>
<path d="M11.9997 15.9375H10.1247C9.81719 15.9375 9.56219 15.6825 9.56219 15.375C9.56219 15.0675 9.81719 14.8125 10.1247 14.8125H11.9997C13.9347 14.8125 15.1872 13.56 15.1872 11.625V11.1H14.2797C13.1472 11.1 12.1872 10.26 12.0972 9.17999C12.0372 8.55749 12.2622 7.95001 12.7122 7.50751C13.0872 7.11751 13.6197 6.90001 14.1822 6.90001H15.1797V6.375C15.1797 4.62 14.1522 3.41248 12.4872 3.21748C12.3072 3.18748 12.1497 3.1875 11.9922 3.1875H5.24219C5.06219 3.1875 4.88968 3.20249 4.71718 3.22499C3.06718 3.43499 2.05469 4.635 2.05469 6.375V7.875C2.05469 8.1825 1.79969 8.4375 1.49219 8.4375C1.18469 8.4375 0.929688 8.1825 0.929688 7.875V6.375C0.929688 4.065 2.35471 2.39251 4.56721 2.11501C4.76971 2.08501 5.00219 2.0625 5.24219 2.0625H11.9922C12.1722 2.0625 12.4047 2.07 12.6447 2.1075C14.8572 2.3625 16.3047 4.0425 16.3047 6.375V7.46251C16.3047 7.77001 16.0497 8.02501 15.7422 8.02501H14.1822C13.9197 8.02501 13.6797 8.12251 13.5072 8.30251C13.2897 8.51251 13.1847 8.79749 13.2147 9.08249C13.2522 9.57749 13.7322 9.97499 14.2722 9.97499H15.7497C16.0572 9.97499 16.3122 10.23 16.3122 10.5375V11.625C16.3122 14.205 14.5797 15.9375 11.9997 15.9375Z"/>
</svg>
